# Blender v2.79 (sub 0) OBJ File: 'KUKA.blend'
# www.blender.org
mtllib link5.mtl
o link5_object.006
v -0.060086 0.085450 0.010454
v -0.052781 0.069858 0.030979
v -0.058151 0.094540 -0.002033
v -0.051892 0.121277 0.016272
v -0.002849 0.120715 0.036905
v 0.023865 0.120854 0.032764
v 0.022394 0.112537 0.017186
v 0.058546 0.104250 0.005690
v 0.044707 0.113811 0.004856
v -0.024975 0.114928 0.021057
v -0.025088 0.124886 0.037847
v -0.054064 0.017000 0.028957
v 0.058225 0.067920 0.018080
v 0.051949 0.017000 0.030808
v -0.025894 0.106652 -0.006061
v -0.050394 0.101065 -0.009184
v -0.038938 0.104138 -0.011471
v -0.000959 0.109874 0.016404
v 0.010364 0.104585 -0.009254
v 0.016724 0.097506 -0.025397
v 0.048886 0.099850 -0.011848
v -0.017195 0.089551 -0.035736
v -0.047869 0.079244 -0.027217
v -0.059686 0.017077 -0.011715
v 0.035249 0.080331 -0.036475
v 0.049579 0.065644 -0.030220
v 0.056997 0.062769 -0.017312
v 0.060052 0.069731 -0.001686
v -0.051643 0.053912 -0.030181
v -0.048564 0.017000 -0.036357
v -0.041142 0.052943 -0.043261
v 0.015219 0.082968 -0.042585
v 0.024208 0.053074 -0.054274
v 0.043106 0.058151 -0.040810
v -0.001507 0.066691 -0.054399
v -0.028360 0.075494 -0.043182
v 0.051957 0.017018 -0.031233
v -0.025742 0.047378 -0.054117
v -0.026945 0.017000 -0.054049
v -0.058236 0.139759 0.039495
v 0.059046 0.136432 0.036403
v 0.048741 0.063139 0.036417
v 0.061022 0.017000 0.002632
v 0.037754 0.017065 0.046487
v 0.058887 0.105618 0.027037
v 0.006695 0.017000 0.060535
v 0.010576 0.058685 0.059784
v 0.007441 0.043113 -0.059645
v 0.003175 0.017000 -0.060771
v -0.012852 0.049449 -0.058379
v 0.032344 0.017000 -0.050999
v -0.026968 0.017000 0.054290
v 0.007490 0.107017 0.067649
v 0.024620 0.064697 0.055744
v 0.028330 0.114348 0.064316
v 0.054369 0.182433 0.074061
v 0.054256 0.169265 0.053739
v 0.040312 0.152148 0.053283
v 0.055581 0.152148 0.048576
v 0.060156 0.163898 0.059048
v 0.043808 0.105067 0.050541
v 0.034872 0.083220 0.052737
v 0.019282 0.141139 0.051976
v 0.016934 0.149346 0.079512
v -0.010724 0.057070 0.059878
v -0.006328 0.105629 0.067525
v -0.024648 0.108098 0.063687
v -0.050150 0.181421 0.076471
v -0.035159 0.105403 0.057271
v -0.058371 0.173404 0.066336
v -0.059969 0.155449 0.053594
v -0.058138 0.164314 0.053884
v -0.021877 0.141563 0.052335
v -0.049614 0.162110 0.053646
v -0.058812 0.179833 0.054817
v -0.055243 0.174199 0.046004
v -0.041944 0.240890 0.056573
v -0.031260 0.251130 0.046279
v -0.014312 0.245793 0.074621
v 0.033708 0.243373 0.063481
v 0.050700 0.230349 0.054858
v 0.055338 0.223328 0.045997
v -0.005360 0.258293 0.055363
v 0.020764 0.254840 0.053683
v 0.038634 0.245551 0.046115
v 0.004118 0.259295 0.046001
v 0.060288 0.195499 0.045997
v 0.059191 0.183621 0.055028
v 0.059105 0.209123 0.056301
v 0.052196 0.202514 0.074248
v 0.044973 0.224510 0.071460
v 0.039182 0.210446 0.083602
v 0.029152 0.224858 0.084447
v 0.003229 0.203842 0.094533
v -0.016116 0.211758 0.092705
v -0.038606 0.225844 0.077529
v -0.059650 0.199725 0.060738
v -0.047331 0.203204 0.079654
v -0.054995 0.221661 0.056883
v 0.051606 0.166225 0.046005
v 0.016407 0.136971 0.053133
v 0.054709 0.116023 0.041569
v 0.026003 0.194387 0.090217
v -0.018933 0.159851 0.082336
v -0.031117 0.191313 0.087795
v -0.000413 0.162793 0.085211
v -0.060682 0.200181 0.045990
v -0.028320 0.142429 0.053153
v -0.007454 0.136857 0.053532
v -0.047646 0.114863 0.050689
v -0.030826 0.059492 0.052229
v -0.013950 0.139685 0.046000
v -0.039112 0.152162 0.045999
v -0.057284 0.109619 0.033255
v -0.042109 0.066733 0.044108
v 0.020535 0.140806 0.045993
v -0.019556 0.230627 0.085085
v 0.005138 0.226892 0.089714
v 0.014040 0.243332 0.077081
v -0.052270 0.228735 0.046000
v -0.048660 -0.000000 0.014944
v -0.048660 0.017000 -0.014944
v -0.045629 0.017000 0.024153
v -0.045629 0.000000 -0.024153
v 0.048660 0.000000 -0.014944
v 0.045629 0.017000 -0.024153
v -0.024153 -0.000000 0.045629
v 0.045629 -0.000000 0.024153
v 0.048660 0.017000 0.014944
v 0.024153 0.017000 0.045629
v 0.014944 -0.000000 0.048660
v 0.024153 0.000000 -0.045629
v 0.014944 0.017000 -0.048660
v -0.014944 0.000000 -0.048660
v -0.024153 0.017000 -0.045629
v -0.014944 0.017000 0.048660
v 0.045235 0.176711 0.045999
v 0.049370 0.190110 0.045999
v 0.049998 0.201308 0.045999
v 0.047392 0.215077 0.045999
v 0.042336 0.225099 0.045999
v 0.035497 0.234005 0.045999
v 0.024223 0.242327 0.045999
v 0.013869 0.246616 0.045999
v 0.002814 0.248496 0.045999
v -0.011171 0.247447 0.045999
v -0.024223 0.242327 0.045999
v -0.035497 0.234005 0.045999
v -0.042336 0.225099 0.045999
v -0.047392 0.215077 0.045999
v -0.049998 0.201308 0.045999
v -0.049370 0.190110 0.045999
v -0.045235 0.176711 0.045999
v -0.035497 0.162990 0.045999
v -0.024223 0.154668 0.045999
v -0.011171 0.149548 0.045999
v 0.002814 0.148499 0.045999
v 0.013869 0.150379 0.045999
v 0.024223 0.154668 0.045999
v 0.035497 0.162990 0.045999
vn -0.9985 -0.0049 0.0546
vn -0.8890 -0.0413 0.4560
vn -0.8794 -0.0663 0.4715
vn 0.0145 0.8127 -0.5825
vn -0.2037 0.8187 -0.5369
vn 0.0060 0.9383 -0.3457
vn 0.2046 0.8926 -0.4017
vn 0.2078 0.7687 -0.6049
vn -0.9872 -0.0080 -0.1591
vn -0.9151 0.2189 -0.3386
vn -0.9896 -0.0631 0.1295
vn 0.9624 -0.0390 0.2690
vn 0.9956 0.0262 -0.0899
vn 0.9502 -0.1323 0.2821
vn -0.0392 0.9414 -0.3351
vn -0.1773 0.9178 -0.3552
vn 0.9996 -0.0206 0.0215
vn 0.1543 0.5995 -0.7854
vn 0.0724 0.8227 -0.5638
vn 0.5435 0.5761 -0.6105
vn 0.0613 0.9236 -0.3785
vn 0.7857 0.2182 -0.5789
vn 0.9007 0.2750 -0.3362
vn 0.9330 0.0840 -0.3498
vn -0.0228 0.8596 -0.5105
vn -0.5750 0.5629 -0.5937
vn -0.1654 0.7903 -0.5900
vn -0.1383 0.7097 -0.6908
vn 0.4691 0.4777 -0.7428
vn 0.6730 0.1737 -0.7190
vn -0.3676 0.4576 -0.8096
vn -0.6933 0.3399 -0.6354
vn -0.8658 0.0956 -0.4912
vn 0.8639 -0.0027 -0.5037
vn 0.3723 0.1944 -0.9075
vn -0.7958 -0.0020 -0.6056
vn -0.0130 0.4146 -0.9099
vn -0.6424 0.1488 -0.7518
vn -0.4311 0.1335 -0.8924
vn -0.4413 -0.0131 -0.8973
vn 0.0984 0.8313 -0.5471
vn 0.1586 0.5722 -0.8046
vn -0.6811 0.5388 -0.4958
vn -0.1007 0.3705 -0.9234
vn 0.0050 -0.1437 -0.9896
vn 0.6398 -0.6730 0.3711
vn 0.4362 -0.6814 0.5878
vn 0.8171 -0.0566 0.5737
vn 0.9697 -0.1201 0.2127
vn 0.3715 -0.0952 0.9235
vn 0.1166 -0.0438 0.9922
vn 0.1585 -0.0647 0.9852
vn -0.2031 0.1736 -0.9636
vn 0.0563 -0.0050 -0.9984
vn 0.5283 0.0014 -0.8491
vn 0.1388 0.1014 -0.9851
vn -0.1801 -0.0746 0.9808
vn -0.4493 -0.0446 0.8923
vn 0.4032 -0.2623 0.8767
vn 0.1239 -0.2312 0.9650
vn -0.0462 0.4788 -0.8767
vn 0.3325 -0.1314 -0.9339
vn 0.9586 -0.0874 -0.2711
vn 0.6578 -0.2085 0.7238
vn 0.7281 -0.0884 0.6797
vn 0.5972 -0.1573 0.7865
vn -0.1018 -0.2211 0.9699
vn -0.3531 -0.2340 0.9059
vn -0.5956 -0.1480 0.7895
vn -0.5316 -0.2133 0.8197
vn -0.8573 -0.1451 0.4940
vn -0.9541 0.1357 0.2670
vn -0.3641 0.2828 -0.8874
vn -0.2353 -0.8506 -0.4702
vn 0.1439 0.2275 -0.9631
vn -0.3708 0.0131 -0.9286
vn -0.6203 -0.7782 0.0983
vn -0.8757 -0.4788 -0.0623
vn -0.9857 -0.0740 -0.1515
vn -0.8639 0.5003 0.0583
vn -0.6658 0.6897 0.2845
vn -0.4544 0.8523 0.2590
vn 0.5117 0.6416 -0.5715
vn 0.5283 0.7233 0.4447
vn 0.8082 0.5419 0.2305
vn 0.7081 0.3087 -0.6351
vn 0.2058 0.7032 0.6805
vn 0.3424 0.9285 0.1437
vn -0.1103 0.9632 0.2450
vn -0.2370 0.7483 0.6195
vn 0.0773 0.9926 0.0934
vn 0.8344 -0.5306 -0.1494
vn 0.9996 -0.0265 -0.0038
vn 0.9565 0.2212 0.1905
vn -0.2133 0.1355 0.9675
vn -0.5612 0.4549 0.6915
vn -0.6590 0.1417 0.7387
vn -0.8823 0.3908 0.2623
vn 0.1833 -0.2351 -0.9545
vn 0.3427 -0.9394 0.0077
vn 0.2650 -0.8490 -0.4572
vn 0.8224 -0.2381 0.5168
vn 0.2123 -0.2812 0.9359
vn 0.2902 -0.0787 0.9537
vn -0.3104 -0.1175 0.9433
vn -0.2122 -0.2679 0.9398
vn -0.0054 -0.2535 0.9673
vn 0.0581 -0.0068 0.9983
vn 0.7879 0.1662 0.5930
vn 0.5064 0.1936 0.8403
vn 0.3984 0.4054 0.8228
vn -0.9975 0.0660 0.0235
vn -0.2364 -0.9483 -0.2117
vn -0.5007 -0.0706 0.8627
vn -0.7227 -0.2500 0.6444
vn -0.7029 -0.1018 0.7040
vn -0.8948 -0.1940 0.4021
vn 0.6923 0.4575 0.5581
vn 0.0808 0.4049 0.9108
vn -0.2757 0.4788 0.8335
vn -0.7399 -0.6406 0.2052
vn -0.8839 -0.0184 0.4674
vn -0.9623 0.0250 -0.2707
vn -0.6790 -0.6171 -0.3976
vn -0.4674 -0.0184 -0.8839
vn -0.4673 0.0184 0.8839
vn 0.7476 -0.6405 -0.1756
vn 0.9623 0.0250 0.2707
vn 0.8839 0.0184 0.4674
vn 0.8839 -0.0184 -0.4674
vn 0.4674 -0.0184 0.8839
vn 0.2707 -0.0250 0.9623
vn -0.2707 -0.0250 -0.9623
vn 0.2707 0.0250 -0.9623
vn 0.3727 -0.6164 -0.6937
vn 0.0000 -1.0000 -0.0000
vn -0.2707 0.0250 0.9623
vn 0.0000 -0.0002 -1.0000
vn 0.0004 -0.0002 -1.0000
vn 0.0006 -0.0002 -1.0000
vn -0.0001 -0.0001 -1.0000
vn -0.0002 -0.0000 -1.0000
vn 0.0046 0.0075 -1.0000
vn 0.0055 0.0115 -0.9999
vn 0.0038 0.0040 -1.0000
vn -0.0009 0.0034 -1.0000
vn 0.0000 0.0002 -1.0000
vn -0.0091 0.0137 -0.9999
vn -0.0109 0.0199 -0.9997
vn -0.0119 0.0223 -0.9997
vn -0.0065 0.0150 -0.9999
vn -0.0011 0.0035 -1.0000
vn -0.0001 0.0001 -1.0000
vn 0.0003 0.0001 -1.0000
vn 0.0006 -0.0001 -1.0000
vn 0.0008 -0.0001 -1.0000
vn 0.0003 -0.0003 -1.0000
vn -0.0002 -0.0002 -1.0000
vn -0.0004 -0.0002 -1.0000
vn -0.0001 0.0000 -1.0000
vn -0.0000 0.0000 -1.0000
vn -0.0000 -0.0001 -1.0000
vn -0.0002 0.0003 -1.0000
vn -0.0001 0.0004 -1.0000
vn -0.0001 0.0005 -1.0000
vn -0.0003 0.0005 -1.0000
vn 0.0003 -0.0000 -1.0000
vn -0.0057 -1.0000 0.0002
vn -0.0064 -1.0000 0.0001
vn -0.0011 -1.0000 -0.0000
vn -0.0010 -1.0000 -0.0007
vn -0.0005 -1.0000 -0.0008
vn 0.0005 -1.0000 0.0006
vn 0.0032 -1.0000 0.0042
vn 0.0002 -1.0000 -0.0001
vn 0.0014 -1.0000 -0.0007
vn 0.0018 -1.0000 -0.0009
usemtl Material__1.006
s 1
f 1//1 12//2 2//3
f 5//4 6//5 18//6
f 5//4 10//7 11//8
f 1//1 24//9 12//2
f 3//10 1//1 71//11
f 13//12 28//13 45//14
f 19//15 18//6 7//16
f 13//12 43//17 28//13
f 32//18 20//19 21//20
f 24//9 1//1 3//10
f 19//15 15//21 18//6
f 26//22 21//20 8//23
f 8//23 27//24 26//22
f 20//19 19//15 9//25
f 16//26 17//27 22//28
f 25//29 32//18 21//20
f 26//22 34//30 21//20
f 34//30 25//29 21//20
f 15//21 20//19 17//27
f 20//19 22//28 17//27
f 22//28 36//31 16//26
f 36//31 23//32 16//26
f 29//33 24//9 3//10
f 23//32 29//33 3//10
f 15//21 19//15 20//19
f 26//22 37//34 34//30
f 25//29 34//30 33//35
f 24//9 29//33 30//36
f 32//18 35//37 22//28
f 31//38 36//31 38//39
f 31//38 30//36 29//33
f 31//38 39//40 30//36
f 4//41 16//26 40//42
f 41//43 21//20 9//25
f 6//5 5//4 101//44
f 4//41 11//8 10//7
f 109//45 101//44 5//4
f 6//5 41//43 7//16
f 9//25 7//16 41//43
f 13//12 14//46 43//17
f 3//10 16//26 23//32
f 7//16 9//25 19//15
f 28//13 27//24 8//23
f 16//26 4//41 17//27
f 15//21 10//7 18//6
f 15//21 17//27 4//41
f 21//20 20//19 9//25
f 44//47 14//46 42//48
f 42//48 14//46 13//12
f 60//49 28//13 8//23
f 11//8 4//41 40//42
f 16//26 3//10 40//42
f 71//11 40//42 3//10
f 109//45 5//4 11//8
f 45//14 42//48 13//12
f 54//50 46//51 44//47
f 46//51 54//50 47//52
f 39//40 50//53 49//54
f 51//55 33//35 34//30
f 39//40 38//39 50//53
f 48//56 50//53 35//37
f 33//35 49//54 48//56
f 33//35 51//55 49//54
f 35//37 33//35 48//56
f 38//39 39//40 31//38
f 35//37 50//53 36//31
f 32//18 33//35 35//37
f 51//55 34//30 37//34
f 50//53 38//39 36//31
f 65//57 52//58 46//51
f 55//59 53//60 54//50
f 59//61 57//62 88//63
f 88//63 60//49 59//61
f 61//64 56//65 55//59
f 54//50 62//66 55//59
f 46//51 47//52 65//57
f 47//52 54//50 53//60
f 66//67 65//57 47//52
f 67//68 68//69 69//70
f 67//68 65//57 66//67
f 70//71 97//72 71//11
f 72//73 71//11 97//72
f 73//74 108//75 74//76
f 74//76 113//77 73//74
f 76//78 113//77 75//79
f 120//80 77//81 78//82
f 85//83 80//84 81//85
f 82//86 85//83 81//85
f 119//87 80//84 84//88
f 83//89 78//82 79//90
f 79//90 119//87 83//89
f 86//91 84//88 85//83
f 84//88 86//91 83//89
f 78//82 83//89 86//91
f 119//87 84//88 83//89
f 85//83 84//88 80//84
f 77//81 79//90 78//82
f 88//63 100//92 87//93
f 89//94 88//63 87//93
f 95//95 96//96 98//97
f 97//72 98//97 99//98
f 57//62 58//99 100//92
f 100//92 58//99 116//100
f 63//101 58//99 101//44
f 60//49 56//65 102//102
f 59//61 58//99 57//62
f 116//100 58//99 63//101
f 64//103 55//59 103//104
f 56//65 103//104 55//59
f 105//105 67//68 104//106
f 64//103 53//60 55//59
f 66//67 104//106 67//68
f 74//76 75//79 113//77
f 97//72 75//79 72//73
f 105//105 68//69 67//68
f 70//71 68//69 98//97
f 106//107 94//108 104//106
f 90//109 92//110 56//65
f 103//104 92//110 93//111
f 88//63 89//94 60//49
f 88//63 57//62 100//92
f 89//94 56//65 60//49
f 92//110 103//104 56//65
f 105//105 104//106 94//108
f 105//105 98//97 68//69
f 98//97 97//72 70//71
f 106//107 103//104 94//108
f 94//108 95//95 105//105
f 95//95 98//97 105//105
f 64//103 103//104 106//107
f 104//106 66//67 106//107
f 53//60 106//107 66//67
f 53//60 64//103 106//107
f 89//94 90//109 56//65
f 75//79 107//112 76//78
f 74//76 72//73 75//79
f 62//66 61//64 55//59
f 56//65 61//64 102//102
f 74//76 108//75 40//42
f 112//113 73//74 113//77
f 111//114 65//57 67//68
f 111//114 67//68 69//70
f 68//69 110//115 69//70
f 69//70 110//115 115//116
f 110//115 70//71 114//117
f 115//116 52//58 111//114
f 2//3 12//2 115//116
f 52//58 115//116 12//2
f 42//48 62//66 44//47
f 101//44 109//45 63//101
f 71//11 72//73 40//42
f 74//76 40//42 72//73
f 111//114 69//70 115//116
f 114//117 2//3 110//115
f 115//116 110//115 2//3
f 1//1 114//117 71//11
f 101//44 41//43 6//5
f 41//43 60//49 8//23
f 60//49 45//14 28//13
f 45//14 60//49 102//102
f 108//75 73//74 109//45
f 40//42 108//75 11//8
f 109//45 11//8 108//75
f 102//102 42//48 45//14
f 41//43 101//44 59//61
f 41//43 59//61 60//49
f 61//64 62//66 42//48
f 42//48 102//102 61//64
f 44//47 62//66 54//50
f 1//1 2//3 114//117
f 70//71 71//11 114//117
f 111//114 52//58 65//57
f 70//71 110//115 68//69
f 112//113 109//45 73//74
f 109//45 116//100 63//101
f 59//61 101//44 58//99
f 116//100 109//45 112//113
f 93//111 94//108 103//104
f 92//110 90//109 91//118
f 97//72 107//112 75//79
f 94//108 118//119 95//95
f 99//98 96//96 77//81
f 117//120 95//95 118//119
f 82//86 89//94 87//93
f 118//119 93//111 119//87
f 120//80 107//112 99//98
f 77//81 120//80 99//98
f 82//86 81//85 89//94
f 80//84 119//87 93//111
f 117//120 79//90 96//96
f 99//98 107//112 97//72
f 77//81 96//96 79//90
f 81//85 80//84 91//118
f 93//111 91//118 80//84
f 118//119 79//90 117//120
f 118//119 119//87 79//90
f 89//94 91//118 90//109
f 91//118 93//111 92//110
f 94//108 93//111 118//119
f 96//96 95//95 117//120
f 96//96 99//98 98//97
f 91//118 89//94 81//85
f 47//52 53//60 66//67
f 49//54 50//53 48//56
f 37//34 27//24 43//17
f 28//13 43//17 27//24
f 26//22 27//24 37//34
f 20//19 32//18 22//28
f 36//31 31//38 23//32
f 31//38 29//33 23//32
f 36//31 22//28 35//37
f 33//35 32//18 25//29
f 10//7 5//4 18//6
f 7//16 18//6 6//5
f 8//23 21//20 41//43
f 4//41 10//7 15//21
f 121//121 123//122 122//123
f 122//123 124//124 121//121
f 135//125 124//124 122//123
f 127//126 123//122 121//121
f 125//127 129//128 128//129
f 129//128 125//127 126//130
f 130//131 128//129 129//128
f 130//131 131//132 128//129
f 134//133 133//134 132//135
f 134//133 135//125 133//134
f 132//135 133//134 126//130
f 134//136 121//121 124//124
f 134//136 127//136 121//121
f 131//136 127//136 134//136
f 132//135 131//136 134//136
f 132//135 128//136 131//136
f 125//127 128//136 132//135
f 126//130 125//127 132//135
f 135//125 134//133 124//124
f 136//137 131//132 130//131
f 136//137 127//126 131//132
f 127//126 136//137 123//122
f 138//138 100//139 137//140
f 138//138 87//141 100//139
f 139//142 87//141 138//138
f 82//86 87//141 139//142
f 140//142 82//86 139//142
f 141//141 82//86 140//142
f 142//143 82//86 141//141
f 85//83 82//86 142//143
f 143//144 85//83 142//143
f 144//145 85//83 143//144
f 86//146 85//83 144//145
f 145//147 86//146 144//145
f 146//148 86//146 145//147
f 78//149 86//146 146//148
f 147//150 78//149 146//148
f 148//151 78//149 147//150
f 120//152 78//149 148//151
f 149//153 120//152 148//151
f 150//154 120//152 149//153
f 107//155 120//152 150//154
f 151//156 107//155 150//154
f 152//157 107//155 151//156
f 76//158 107//155 152//157
f 153//159 76//158 152//157
f 154//160 76//158 153//159
f 113//161 76//158 154//160
f 155//161 113//161 154//160
f 112//161 113//161 155//161
f 156//162 112//161 155//161
f 157//163 112//161 156//162
f 116//164 112//161 157//163
f 158//165 116//164 157//163
f 159//166 116//164 158//165
f 160//167 116//164 159//166
f 100//139 116//164 160//167
f 137//140 100//139 160//167
f 122//168 24//169 30//170
f 123//171 24//169 122//168
f 12//172 24//169 123//171
f 52//136 12//172 123//171
f 136//136 52//136 123//171
f 46//173 52//136 136//136
f 130//174 46//173 136//136
f 44//47 46//173 130//174
f 14//46 44//47 130//174
f 129//136 14//46 130//174
f 43//175 14//46 129//136
f 126//176 43//175 129//136
f 37//177 43//175 126//176
f 51//175 37//177 126//176
f 133//136 51//175 126//176
f 49//136 51//175 133//136
f 135//136 49//136 133//136
f 39//136 49//136 135//136
f 30//170 39//136 135//136
f 122//168 30//170 135//136
