# Blender v2.79 (sub 0) OBJ File: 'KUKA.blend'
# www.blender.org
mtllib link2.mtl
o link2_object.003
v -0.045677 0.032729 0.208460
v -0.043553 0.035027 0.191458
v -0.058236 0.007836 0.191479
v -0.058940 0.004819 0.208481
v -0.057755 -0.026057 0.208506
v -0.057402 -0.029293 0.191509
v -0.040653 -0.051797 0.208527
v -0.028231 -0.061220 0.191535
v -0.007491 -0.068510 0.208540
v 0.011407 -0.067583 0.191539
v 0.031607 -0.059211 0.208533
v 0.041394 -0.051533 0.191527
v 0.053090 -0.037020 0.208515
v 0.058319 -0.025683 0.191506
v 0.061113 0.002361 0.208483
v 0.055679 0.020604 0.191469
v 0.043330 0.034965 0.208458
v 0.014094 0.052340 0.208444
v 0.017144 0.051534 0.191444
v -0.016853 0.050585 0.191445
v -0.019809 0.049644 0.208446
v -0.043840 0.018156 0.208471
v -0.044132 0.017042 0.191472
v -0.049653 -0.020679 0.208502
v -0.049798 -0.021804 0.191503
v -0.027571 -0.049639 0.208525
v -0.026455 -0.050088 0.191525
v 0.010843 -0.058304 0.208532
v 0.000298 -0.058249 0.191532
v 0.034411 -0.045512 0.191522
v 0.044277 -0.032831 0.208512
v 0.050572 -0.005573 0.208490
v 0.051848 -0.007297 0.191491
v 0.040890 0.023834 0.208467
v 0.037893 0.026457 0.191464
v 0.015190 0.040773 0.208453
v 0.014131 0.041320 0.191453
v -0.015766 0.041348 0.208453
v -0.019445 0.039968 0.191454
v 0.060394 0.005848 0.191479
v 0.059528 0.006582 0.127654
v 0.059676 -0.007017 0.112062
v 0.050178 -0.029054 0.120712
v 0.055739 0.006426 0.079821
v 0.039086 -0.002016 0.081755
v 0.034026 -0.021863 0.103506
v -0.041900 -0.012886 0.095891
v -0.049389 -0.002602 0.086349
v -0.053598 -0.021323 0.116615
v -0.059895 0.004133 0.099792
v -0.055946 0.015359 0.150762
v -0.039024 0.005829 0.063474
v 0.046963 0.007080 0.066847
v 0.054971 0.020586 0.131051
v 0.034848 0.041480 0.191366
v 0.059031 0.021838 0.056247
v 0.056229 -0.028709 0.154723
v 0.055251 -0.032743 0.191511
v 0.029957 -0.045002 0.123813
v 0.045771 -0.044920 0.146666
v 0.017187 -0.064304 0.155073
v -0.012824 -0.059781 0.139495
v -0.035160 -0.042864 0.123843
v 0.001720 -0.045558 0.120067
v -0.051865 -0.036339 0.147011
v 0.034631 -0.056698 0.163952
v -0.036786 -0.054945 0.160364
v -0.035410 -0.057209 0.191530
v 0.032730 -0.058869 0.191533
v -0.008205 -0.067005 0.160172
v 0.010996 0.051552 0.191404
v -0.024347 0.049203 0.191447
v 0.000242 -0.067926 0.191540
v -0.013175 0.051846 0.151945
v -0.061348 -0.014824 0.191498
v -0.058637 -0.017555 0.139528
v -0.046876 0.030161 0.191379
v -0.059804 0.025217 0.060054
v -0.052170 0.011198 0.063778
v 0.005501 0.007374 0.061406
v -0.055950 0.024766 0.105290
v -0.036578 0.042231 0.135356
v 0.059691 0.043291 0.037661
v 0.048998 0.040864 0.095799
v 0.041361 0.037490 0.144945
v 0.027430 0.050947 0.118484
v 0.022719 0.064750 0.076102
v 0.050034 0.059331 0.047804
v 0.057185 0.016331 0.033579
v 0.046732 0.008734 0.040714
v -0.017360 0.056176 0.112149
v -0.028405 0.061393 0.078511
v -0.049710 0.060901 0.041674
v -0.057821 0.044591 0.048931
v -0.058471 0.018007 0.020692
v -0.051701 0.009321 0.033239
v -0.059772 0.037396 0.011334
v -0.054434 0.054483 0.003066
v -0.030220 0.076597 0.036903
v 0.005682 0.053351 0.143140
v -0.000231 0.065258 0.085347
v 0.023580 0.080131 0.034552
v 0.051003 0.062276 0.014763
v 0.060497 0.029450 0.010662
v 0.025859 0.006836 0.055236
v 0.011310 0.000046 0.059843
v -0.033992 0.000043 0.051793
v -0.047651 0.042709 0.091058
v -0.026383 0.006527 0.054885
v -0.058169 0.000018 0.016116
v -0.043697 0.056749 -0.027918
v -0.026982 0.058088 -0.045954
v -0.019334 0.079140 -0.028149
v 0.012396 0.082761 -0.025536
v 0.015934 0.070425 -0.042914
v 0.028069 0.055693 -0.047465
v 0.042066 0.067330 -0.017835
v 0.043839 0.043299 -0.038083
v 0.055991 0.039118 -0.014921
v -0.049656 0.038713 -0.030446
v 0.000553 0.087635 0.003464
v 0.059844 -0.000007 -0.009709
v -0.004269 0.066511 -0.050234
v 0.051107 -0.000006 -0.032977
v -0.029197 0.041316 -0.051522
v -0.048768 -0.000015 -0.036053
v -0.059330 -0.000006 -0.011216
v -0.018978 -0.000031 -0.057892
v -0.001380 0.044847 -0.060525
v 0.024897 0.041971 -0.054113
v 0.026796 -0.000047 -0.055177
v 0.057529 0.000401 0.017622
v 0.033547 0.077158 -0.003536
v 0.041354 0.000031 0.044438
v -0.004045 0.083898 0.033545
v -0.033849 0.076705 -0.010089
v -0.008169 0.000039 0.049358
v 0.003024 0.000040 0.049987
v 0.014083 0.000038 0.048109
v 0.024449 0.000035 0.043814
v 0.033591 0.000030 0.037327
v 0.041062 0.000023 0.028967
v 0.046485 0.000015 0.019154
v 0.049590 0.000007 0.008382
v 0.050188 -0.000005 -0.005218
v 0.046485 -0.000015 -0.019178
v 0.041062 -0.000023 -0.028991
v 0.033592 -0.000030 -0.037350
v 0.024449 -0.000035 -0.043838
v 0.014082 -0.000038 -0.048133
v 0.003024 -0.000040 -0.050011
v -0.008169 -0.000039 -0.049382
v -0.021190 -0.000037 -0.045459
v -0.033144 -0.000030 -0.037356
v -0.040621 -0.000023 -0.028991
v -0.046047 -0.000015 -0.019171
v -0.049150 -0.000007 -0.008398
v -0.049748 0.000005 0.005189
v -0.046047 0.000015 0.019147
v -0.040621 0.000023 0.028966
v -0.033144 0.000030 0.037332
v -0.021190 0.000037 0.045436
vn -0.9698 0.2437 -0.0115
vn -0.7610 0.6487 0.0073
vn -0.7102 0.7040 -0.0082
vn -0.9835 0.1806 -0.0055
vn -0.9329 -0.3601 -0.0042
vn -0.9605 -0.2765 0.0305
vn -0.6889 -0.7240 -0.0346
vn -0.4782 -0.8782 -0.0054
vn 0.1945 -0.9804 0.0321
vn -0.1312 -0.9904 -0.0435
vn 0.5056 -0.8627 0.0101
vn 0.6840 -0.7293 -0.0159
vn 0.8719 -0.4891 0.0229
vn 0.9637 -0.2667 0.0118
vn 0.8829 0.4694 0.0129
vn 0.9910 0.1157 -0.0671
vn 0.6781 0.7324 -0.0611
vn -0.2664 0.9638 -0.0077
vn 0.2118 0.9773 0.0066
vn 0.3039 0.9521 -0.0352
vn -0.3317 0.9434 0.0092
vn 0.9588 0.2837 -0.0143
vn 0.8666 -0.4990 -0.0008
vn 0.9682 0.2492 -0.0236
vn 0.8841 -0.4671 0.0142
vn 0.5728 0.8195 -0.0191
vn 0.5304 0.8476 0.0134
vn -0.2111 0.9770 0.0307
vn -0.6699 0.7410 -0.0473
vn 0.0377 0.9991 0.0191
vn -0.8749 0.4827 0.0379
vn -0.7901 -0.6122 0.0293
vn -0.9996 -0.0029 0.0265
vn -0.9966 -0.0465 -0.0680
vn -0.7224 -0.6910 0.0245
vn 0.2970 -0.9549 0.0050
vn -0.2873 -0.9578 -0.0026
vn -0.3238 -0.9461 -0.0114
vn 0.3933 -0.9194 0.0058
vn -0.0000 0.0008 1.0000
vn 0.0000 -0.0008 -1.0000
vn 0.9569 -0.2520 -0.1440
vn 0.7103 -0.6153 -0.3419
vn 0.5480 -0.7250 -0.4172
vn -0.5481 -0.5001 -0.6705
vn -0.0624 -0.7367 -0.6733
vn 0.1621 -0.8366 -0.5232
vn -0.1864 -0.9415 -0.2807
vn -0.4897 -0.7175 -0.4954
vn -0.7811 -0.5423 -0.3096
vn -0.9933 -0.1158 0.0069
vn 0.8973 0.4325 0.0885
vn 0.4619 0.5765 0.6740
vn 0.7414 0.1738 0.6482
vn 0.7322 0.6772 0.0721
vn 0.2984 -0.7876 -0.5391
vn 0.7000 -0.6880 -0.1915
vn 0.2571 -0.9386 -0.2301
vn -0.4169 -0.7546 -0.5067
vn 0.0169 -0.7280 -0.6854
vn -0.1552 -0.8855 -0.4379
vn -0.8198 -0.5613 -0.1136
vn -0.5786 -0.8057 -0.1265
vn 0.9101 -0.4143 0.0049
vn 0.9380 -0.3442 -0.0419
vn -0.7600 -0.0941 0.6431
vn -0.9608 -0.2651 -0.0809
vn 0.5356 -0.8444 0.0077
vn -0.5987 -0.8008 0.0154
vn -0.0027 -0.9999 0.0164
vn 0.0602 0.9945 0.0861
vn -0.2823 0.7021 0.6538
vn 0.1138 0.7241 0.6803
vn -0.1420 -0.9798 -0.1407
vn -0.2020 0.9781 0.0508
vn -0.9924 -0.0990 -0.0736
vn 0.9895 0.1446 0.0084
vn -0.9542 0.2925 0.0628
vn -0.6049 0.4211 0.6758
vn -0.7007 -0.6929 -0.1699
vn 0.9545 -0.2971 -0.0249
vn 0.6262 -0.7550 -0.1945
vn -0.9381 0.3314 0.1010
vn -0.9205 0.3716 0.1210
vn -0.7301 0.6474 0.2189
vn -0.5870 0.8039 0.0959
vn -0.7324 0.6633 0.1535
vn 0.9648 0.2599 0.0408
vn 0.7139 0.6728 0.1939
vn 0.5717 -0.8149 -0.0952
vn 0.7125 0.6738 0.1958
vn 0.8036 0.5944 -0.0303
vn 0.3415 0.8879 0.3083
vn -0.0146 0.9600 0.2797
vn 0.4177 0.8958 0.1517
vn -0.2626 0.9422 0.2079
vn -0.3928 0.8753 0.2821
vn -0.4240 0.8871 0.1823
vn -0.8854 0.4440 -0.1376
vn -0.9884 0.1279 -0.0815
vn 0.2408 -0.8822 0.4046
vn 0.6579 -0.1366 0.7406
vn 0.7144 -0.6423 0.2776
vn 0.1795 -0.1421 0.9734
vn -0.0275 -0.9433 0.3307
vn -0.5661 0.1156 0.8162
vn -0.2581 -0.7997 0.5421
vn -0.8111 -0.5058 0.2938
vn -0.9647 -0.1147 0.2369
vn -0.9871 -0.1216 0.1037
vn -0.7645 0.4812 -0.4290
vn -0.3282 0.8622 -0.3858
vn -0.4990 0.4760 -0.7241
vn 0.5107 0.4523 -0.7312
vn 0.3163 0.6791 -0.6624
vn 0.7238 0.6191 -0.3048
vn 0.7762 0.2334 -0.5857
vn 0.1976 0.9211 -0.3356
vn -0.8537 0.1985 -0.4815
vn -0.5653 0.8098 -0.1571
vn -0.0095 0.9999 -0.0057
vn 0.9981 0.0554 -0.0275
vn 0.7426 -0.6575 -0.1275
vn 0.9337 0.2360 -0.2694
vn 0.9614 -0.1946 0.1944
vn -0.0757 0.6216 -0.7797
vn 0.6420 -0.6364 -0.4277
vn 0.3203 -0.6367 -0.7014
vn -0.7533 -0.6420 -0.1428
vn -0.6117 -0.6361 -0.4703
vn -0.5274 0.1964 -0.8266
vn -0.2247 -0.6483 -0.7275
vn -0.0169 0.2293 -0.9732
vn 0.4297 0.1670 -0.8874
vn -0.0717 0.9720 0.2237
vn 0.5032 0.8609 -0.0757
vn 0.9067 -0.3910 0.1581
vn 0.3576 0.9142 0.1909
vn -0.0005 0.0013 1.0000
vn -0.0002 0.0011 1.0000
vn 0.0001 0.0010 1.0000
vn -0.0001 -1.0000 0.0008
vn -0.0001 -1.0000 0.0006
vn -0.0001 -1.0000 0.0009
vn 0.0000 -1.0000 0.0006
vn -0.0000 -1.0000 0.0007
vn -0.0002 -1.0000 0.0005
vn 0.0047 -1.0000 0.0004
vn -0.0003 -1.0000 0.0004
vn 0.0199 -0.9998 0.0031
vn 0.0317 -0.9994 0.0107
vn 0.0375 -0.9991 0.0182
vn 0.0434 -0.9990 0.0054
vn 0.0083 -0.9999 0.0082
vn 0.0009 -1.0000 -0.0001
vn 0.0016 -1.0000 -0.0003
vn 0.0010 -1.0000 0.0004
vn -0.0002 -1.0000 0.0010
vn -0.0001 -1.0000 0.0012
vn -0.0003 -1.0000 -0.0001
vn -0.0002 -1.0000 -0.0007
vn -0.0008 -1.0000 -0.0006
vn -0.0010 -1.0000 -0.0005
vn -0.0011 -1.0000 0.0001
vn -0.0007 -1.0000 0.0002
vn -0.0004 -1.0000 0.0008
vn -0.0004 -1.0000 0.0009
vn -0.0005 -1.0000 0.0009
vn -0.0005 -1.0000 0.0010
vn -0.0004 -1.0000 0.0010
usemtl Material__1.003
s 1
f 3//1 1//2 2//3
f 3//1 4//4 1//2
f 4//4 3//1 6//5
f 6//5 5//6 4//4
f 7//7 6//5 8//8
f 6//5 7//7 5//6
f 10//9 9//10 8//8
f 11//11 10//9 12//12
f 9//10 10//9 11//11
f 12//12 13//13 11//11
f 13//13 12//12 14//14
f 16//15 15//16 14//14
f 14//14 15//16 13//13
f 15//16 16//15 17//17
f 20//18 18//19 19//20
f 17//17 19//20 18//19
f 2//3 21//21 20//18
f 2//3 1//2 21//21
f 18//19 20//18 21//21
f 7//7 8//8 9//10
f 25//22 22//23 24//24
f 23//25 22//23 25//22
f 26//26 25//22 24//24
f 26//26 27//27 25//22
f 28//28 30//29 29//30
f 30//29 28//28 31//31
f 26//26 29//30 27//27
f 28//28 29//30 26//26
f 34//32 33//33 32//34
f 33//33 31//31 32//34
f 30//29 31//31 33//33
f 34//32 35//35 33//33
f 19//20 17//17 16//15
f 38//36 37//37 36//38
f 38//36 39//39 37//37
f 37//37 34//32 36//38
f 35//35 34//32 37//37
f 22//23 23//25 39//39
f 39//39 38//36 22//23
f 1//40 38//40 21//40
f 1//40 22//40 38//40
f 4//40 22//40 1//40
f 4//40 24//40 22//40
f 5//40 24//40 4//40
f 7//40 24//40 5//40
f 26//40 24//40 7//40
f 9//40 26//40 7//40
f 9//40 28//40 26//40
f 11//40 28//40 9//40
f 11//40 31//40 28//40
f 13//40 31//40 11//40
f 15//40 31//40 13//40
f 32//40 31//40 15//40
f 34//40 32//40 15//40
f 17//40 34//40 15//40
f 18//40 34//40 17//40
f 18//40 36//40 34//40
f 18//40 38//40 36//40
f 21//40 38//40 18//40
f 23//41 2//41 39//41
f 3//41 2//41 23//41
f 25//41 3//41 23//41
f 6//41 3//41 25//41
f 8//41 6//41 25//41
f 27//41 8//41 25//41
f 29//41 8//41 27//41
f 29//41 10//41 8//41
f 30//41 10//41 29//41
f 12//41 10//41 30//41
f 14//41 12//41 30//41
f 33//41 14//41 30//41
f 16//41 14//41 33//41
f 35//41 16//41 33//41
f 19//41 16//41 35//41
f 37//41 19//41 35//41
f 39//41 19//41 37//41
f 20//41 19//41 39//41
f 39//41 2//41 20//41
f 42//42 43//43 44//44
f 46//45 47//46 45//47
f 45//47 47//46 52//48
f 48//49 49//50 78//51
f 54//52 55//53 40//54
f 85//55 55//53 54//52
f 59//56 60//57 61//58
f 63//59 64//60 62//61
f 65//62 63//59 67//63
f 58//64 57//65 42//42
f 42//42 40//54 58//64
f 46//45 64//60 47//46
f 43//43 57//65 60//57
f 75//66 76//67 65//62
f 62//61 64//60 59//56
f 62//61 67//63 63//59
f 69//68 60//57 58//64
f 67//63 68//69 65//62
f 61//58 69//68 73//70
f 100//71 72//72 71//73
f 61//58 73//70 70//74
f 68//69 70//74 73//70
f 74//75 72//72 100//71
f 75//66 50//76 76//67
f 48//49 47//46 63//59
f 46//45 59//56 64//60
f 57//65 43//43 42//42
f 40//54 42//42 41//77
f 59//56 46//45 45//47
f 43//43 59//56 44//44
f 49//50 48//49 63//59
f 49//50 76//67 50//76
f 50//76 75//66 51//78
f 59//56 45//47 44//44
f 77//79 51//78 75//66
f 48//49 52//48 47//46
f 48//49 78//51 79//80
f 50//76 78//51 49//50
f 42//42 44//44 56//81
f 53//82 44//44 45//47
f 40//54 41//77 54//52
f 79//80 52//48 48//49
f 94//83 81//84 108//85
f 82//86 108//85 81//84
f 94//83 108//85 93//87
f 83//88 54//52 41//77
f 83//88 84//89 54//52
f 58//64 60//57 57//65
f 70//74 68//69 67//63
f 66//90 69//68 61//58
f 69//68 66//90 60//57
f 70//74 67//63 62//61
f 70//74 62//61 61//58
f 88//91 83//88 103//92
f 87//93 101//94 86//95
f 91//96 100//71 101//94
f 92//97 91//96 101//94
f 101//94 99//98 92//97
f 93//87 98//99 94//83
f 97//100 94//83 98//99
f 105//101 134//102 90//103
f 106//104 80//105 107//106
f 109//107 80//105 52//48
f 107//106 80//105 109//107
f 108//85 82//86 92//97
f 82//86 72//72 74//75
f 109//107 52//48 96//108
f 110//109 96//108 95//110
f 111//111 113//112 112//113
f 116//114 115//115 117//116
f 117//116 118//117 116//114
f 115//115 114//118 117//116
f 111//111 120//119 98//99
f 113//112 111//111 136//120
f 113//112 121//121 114//118
f 104//122 122//123 119//124
f 122//123 104//122 132//125
f 123//126 112//113 113//112
f 118//117 124//127 131//128
f 114//118 115//115 123//126
f 112//113 120//119 111//111
f 127//129 120//119 126//130
f 126//130 125//131 128//132
f 114//118 123//126 113//112
f 129//133 128//132 125//131
f 116//114 118//117 130//134
f 125//131 120//119 112//113
f 129//133 130//134 131//128
f 129//133 131//128 128//132
f 116//114 130//134 129//133
f 115//115 116//114 129//133
f 123//126 125//131 112//113
f 123//126 129//133 125//131
f 129//133 123//126 115//115
f 130//134 118//117 131//128
f 119//124 124//127 118//117
f 119//124 122//123 124//127
f 120//119 125//131 126//130
f 117//116 119//124 118//117
f 98//99 120//119 97//100
f 134//102 132//125 90//103
f 83//88 104//122 119//124
f 121//121 136//120 99//98
f 95//110 97//100 127//129
f 93//87 99//98 136//120
f 99//98 135//135 121//121
f 117//116 133//136 103//92
f 132//125 104//122 89//137
f 134//102 105//101 106//104
f 96//108 107//106 109//107
f 98//99 93//87 136//120
f 101//94 102//138 135//135
f 133//136 102//138 103//92
f 102//138 101//94 87//93
f 103//92 102//138 88//91
f 99//98 101//94 135//135
f 119//124 103//92 83//88
f 89//137 90//103 132//125
f 110//109 107//106 96//108
f 119//124 117//116 103//92
f 136//120 111//111 98//99
f 121//121 113//112 136//120
f 117//116 114//118 133//136
f 133//136 114//118 121//121
f 102//138 133//136 121//121
f 135//135 102//138 121//121
f 110//109 95//110 127//129
f 127//129 97//100 120//119
f 82//86 74//75 91//96
f 97//100 95//110 78//51
f 79//80 78//51 95//110
f 52//48 79//80 96//108
f 96//108 79//80 95//110
f 92//97 93//87 108//85
f 91//96 92//97 82//86
f 94//83 97//100 78//51
f 93//87 92//97 99//98
f 72//72 82//86 77//79
f 78//51 81//84 94//83
f 81//84 78//51 50//76
f 51//78 77//79 81//84
f 81//84 77//79 82//86
f 53//82 45//47 90//103
f 84//89 83//88 88//91
f 55//53 85//55 86//95
f 84//89 85//55 54//52
f 84//89 86//95 85//55
f 45//47 80//105 105//101
f 45//47 105//101 90//103
f 86//95 71//73 55//53
f 86//95 84//89 87//93
f 86//95 100//71 71//73
f 89//137 56//81 53//82
f 90//103 89//137 53//82
f 105//101 80//105 106//104
f 100//71 86//95 101//94
f 100//71 91//96 74//75
f 102//138 87//93 84//89
f 84//89 88//91 102//138
f 104//122 83//88 56//81
f 56//81 89//137 104//122
f 44//44 53//82 56//81
f 41//77 42//42 56//81
f 41//77 56//81 83//88
f 50//76 51//78 81//84
f 52//48 80//105 45//47
f 60//57 59//56 43//43
f 65//62 68//69 75//66
f 61//58 60//57 66//90
f 62//61 59//56 61//58
f 49//50 63//59 65//62
f 63//59 47//46 64//60
f 76//67 49//50 65//62
f 55//53 58//139 40//54
f 71//73 58//139 55//53
f 71//73 69//140 58//139
f 71//73 73//141 69//140
f 72//72 73//141 71//73
f 72//72 68//40 73//141
f 75//66 68//40 72//72
f 77//79 75//66 72//72
f 137//142 106//143 107//144
f 138//145 106//143 137//142
f 139//146 106//143 138//145
f 140//147 106//143 139//146
f 134//148 106//143 140//147
f 141//149 134//148 140//147
f 142//150 134//148 141//149
f 132//151 134//148 142//150
f 143//152 132//151 142//150
f 144//153 132//151 143//152
f 145//154 132//151 144//153
f 122//123 132//151 145//154
f 146//155 122//123 145//154
f 124//127 122//123 146//155
f 147//156 124//127 146//155
f 148//157 124//127 147//156
f 131//128 124//127 148//157
f 149//158 131//128 148//157
f 150//159 131//128 149//158
f 151//160 131//128 150//159
f 128//132 131//128 151//160
f 152//161 128//132 151//160
f 153//162 128//132 152//161
f 154//163 128//132 153//162
f 126//130 128//132 154//163
f 155//164 126//130 154//163
f 156//165 126//130 155//164
f 127//129 126//130 156//165
f 157//166 127//129 156//165
f 158//167 127//129 157//166
f 110//168 127//129 158//167
f 159//169 110//168 158//167
f 160//170 110//168 159//169
f 107//144 110//168 160//170
f 161//144 107//144 160//170
f 162//142 107//144 161//144
f 137//142 107//144 162//142
