# Blender v2.79 (sub 0) OBJ File: ''
# www.blender.org
mtllib Cube.mtl
o Cube_Cube.005
v -2.000000 -2.000000 -0.041245
v -2.000000 -2.000000 0.041245
v -2.000000 2.000000 -0.041245
v -2.000000 2.000000 0.041245
v 2.000000 -2.000000 -0.041245
v 2.000000 -2.000000 0.041245
v 2.000000 2.000000 -0.041245
v 2.000000 2.000000 0.041245
vt 0.666667 0.666667
vt 0.333333 0.666667
vt 0.333333 0.333333
vt 0.666667 0.333333
vt 0.333333 0.666667
vt 0.000000 0.666667
vt 0.000000 0.333333
vt 0.333333 0.333333
vt 0.000000 0.000000
vt 0.333333 0.000000
vt 0.333333 0.333333
vt 0.333333 0.000000
vt 0.666667 0.000000
vt 0.666667 0.333333
vt 1.000000 0.333333
vt 0.666667 0.333333
vt 0.666667 0.000000
vt 1.000000 0.000000
vt 0.989770 0.004981
vt 0.989770 0.989728
vt 0.005022 0.989728
vt 0.005022 0.004981
vn -1.0000 0.0000 0.0000
vn 0.0000 1.0000 0.0000
vn 1.0000 0.0000 0.0000
vn 0.0000 -1.0000 0.0000
vn 0.0000 0.0000 -1.0000
vn 0.0000 0.0000 1.0000
usemtl Material.182
s off
f 1/1/1 2/2/1 4/3/1 3/4/1
f 3/5/2 4/6/2 8/7/2 7/8/2
f 7/8/3 8/7/3 6/9/3 5/10/3
f 5/11/4 6/12/4 2/13/4 1/14/4
f 3/15/5 7/16/5 5/17/5 1/18/5
f 8/19/6 4/20/6 2/21/6 6/22/6
