# Blender v2.79 (sub 0) OBJ File: 'knot.blend'
# www.blender.org
mtllib Cube.mtl
o Cube_Cube.001
v -2.000000 -2.000000 -0.044684
v -2.000000 -2.000000 0.044684
v -2.000000 2.000000 -0.044684
v -2.000000 2.000000 0.044684
v 2.000000 -2.000000 -0.044684
v 2.000000 -2.000000 0.044684
v 2.000000 2.000000 -0.044684
v 2.000000 2.000000 0.044684
vt 1.000000 0.500000
vt 0.979491 0.500000
vt 0.979491 0.000000
vt 1.000000 0.000000
vt 0.958982 0.500000
vt 0.938472 0.500000
vt 0.938472 0.000000
vt 0.958981 0.000000
vt 0.938472 0.500000
vt 0.917963 0.500000
vt 0.917963 0.000000
vt 0.938472 0.000000
vt 0.958982 0.000000
vt 0.979491 0.000000
vt 0.958982 0.500000
vt 0.000000 1.000000
vt 0.000000 0.500000
vt 0.917963 0.500000
vt 0.917963 1.000000
vt -0.012486 0.008152
vt 0.990051 0.008152
vt 0.990051 0.981417
vt -0.012486 0.981418
vn -1.0000 0.0000 0.0000
vn 0.0000 1.0000 0.0000
vn 1.0000 0.0000 0.0000
vn 0.0000 -1.0000 0.0000
vn 0.0000 0.0000 -1.0000
vn 0.0000 0.0000 1.0000
usemtl Material
s off
f 1/1/1 2/2/1 4/3/1 3/4/1
f 3/5/2 4/6/2 8/7/2 7/8/2
f 7/9/3 8/10/3 6/11/3 5/12/3
f 5/13/4 6/14/4 2/2/4 1/15/4
f 3/16/5 7/17/5 5/18/5 1/19/5
usemtl Material_wood.png
f 8/20/6 4/21/6 2/22/6 6/23/6
