# Blender v2.79 (sub 0) OBJ File: 'KUKA.blend'
# www.blender.org
mtllib link1.mtl
o link1_object.012
v 0.055178 0.182668 -0.009500
v 0.058824 0.225622 0.007500
v 0.058657 0.228903 -0.009500
v 0.032878 0.260194 0.007500
v 0.018888 0.267660 -0.009500
v -0.027240 0.262992 -0.009500
v -0.009430 0.269032 0.007500
v -0.039869 0.253863 0.007500
v -0.058657 0.228903 -0.009500
v -0.058824 0.225622 0.007500
v -0.055178 0.182668 -0.009500
v -0.053244 0.176527 0.007500
v -0.024690 0.151996 -0.009500
v -0.012531 0.148527 0.007500
v 0.024690 0.151996 -0.009500
v 0.021304 0.151984 0.007500
v 0.053244 0.176527 0.007500
v 0.048659 0.193551 -0.009500
v 0.048630 0.195324 0.007500
v 0.048659 0.223443 0.007500
v 0.045629 0.232652 -0.009500
v 0.028727 0.250518 0.007500
v -0.009561 0.259231 0.007500
v 0.009561 0.259231 -0.009500
v -0.028727 0.250518 -0.009500
v -0.045629 0.232652 0.007500
v -0.048659 0.223443 -0.009500
v -0.048659 0.193551 0.007500
v -0.048630 0.195324 -0.009500
v -0.024155 0.162870 0.007500
v -0.034577 0.171141 -0.009500
v -0.009230 0.158968 -0.009500
v 0.009230 0.158968 0.007500
v 0.024155 0.162870 -0.009500
v 0.034577 0.171141 0.007500
v -0.055479 0.187050 0.008356
v -0.059783 0.196878 0.046017
v -0.055523 0.224476 0.043989
v -0.044432 0.244964 0.051776
v -0.029566 0.243118 0.076508
v -0.004029 0.235218 0.090637
v 0.016245 0.241423 0.084621
v 0.026590 0.251085 0.071239
v 0.041547 0.248893 0.052076
v -0.060391 0.216424 0.007518
v -0.044867 0.167125 0.014376
v -0.058178 0.176111 0.028363
v -0.052985 0.209997 0.064902
v -0.032322 0.198617 0.086254
v -0.032961 0.224165 0.083161
v 0.005436 0.196570 0.094449
v 0.012530 0.162825 0.086822
v 0.024668 0.220762 0.088412
v 0.039157 0.223388 0.078305
v 0.046142 0.188877 0.075296
v 0.054720 0.204177 0.062698
v 0.056355 0.223216 0.043063
v 0.060012 0.194326 0.007529
v 0.057718 0.188308 0.017780
v 0.025395 0.185462 0.087998
v -0.016749 0.171834 0.088568
v 0.011303 0.121306 0.071250
v 0.045315 0.167651 0.014814
v 0.031645 0.156008 0.007502
v 0.007534 0.268502 0.007502
v 0.009173 0.267863 0.049841
v 0.020744 0.263670 0.054845
v -0.004953 0.258154 0.075204
v -0.034404 0.250730 0.061552
v -0.025927 0.262287 0.047482
v -0.019346 0.265788 0.007507
v -0.046648 0.248494 0.007538
v -0.004920 0.148115 0.007501
v -0.011276 0.147342 0.014978
v 0.056474 0.158081 0.026458
v 0.058353 0.153167 0.049703
v 0.049827 0.106428 0.043880
v 0.028575 0.110112 0.061882
v 0.019184 0.056114 0.057475
v 0.027515 0.016999 0.054734
v 0.036439 0.075757 0.049431
v 0.043035 0.149533 0.014389
v -0.038081 0.140177 0.011179
v -0.053740 0.145528 0.019414
v -0.057498 0.161436 0.054187
v -0.060241 0.159897 0.040717
v -0.039609 0.115722 0.057324
v -0.029254 0.061628 0.053585
v -0.009322 0.016999 0.059970
v -0.048720 0.161342 0.017019
v -0.003519 0.053945 0.060635
v 0.005834 0.077941 0.062636
v 0.042993 0.165711 0.074537
v 0.060169 0.182639 0.045598
v 0.019738 0.150747 0.014299
v 0.015552 0.053337 -0.057228
v 0.003049 0.016999 -0.060789
v -0.009198 0.048119 -0.059444
v 0.046870 0.017004 -0.041057
v 0.044911 0.058427 -0.038931
v 0.031738 0.056499 -0.049946
v -0.038267 0.051978 -0.046498
v -0.054750 0.052991 -0.024878
v -0.002887 0.081903 -0.045620
v -0.041424 0.016999 -0.046238
v -0.049089 0.068825 0.036639
v -0.057799 0.016999 0.019198
v -0.059669 0.017002 -0.009313
v -0.050300 0.088890 -0.021103
v -0.028319 0.078829 -0.041957
v 0.034464 0.087101 -0.033490
v 0.055112 0.093498 -0.011682
v 0.057605 0.061180 -0.016556
v 0.060384 0.017013 -0.000366
v 0.058087 0.083124 0.019386
v 0.059830 0.139526 0.028183
v 0.052541 0.125549 0.009226
v 0.039519 0.125197 0.004603
v -0.038572 0.123727 0.003307
v 0.023817 0.092709 -0.031444
v -0.039922 0.106163 -0.012711
v -0.055200 0.127096 0.012252
v -0.060427 0.097275 0.004920
v 0.051957 0.016999 0.030774
v 0.048317 0.055793 0.036472
v -0.056042 0.079344 0.025501
v -0.037652 0.016999 0.047472
v -0.033728 0.167753 0.080628
v -0.050809 0.164044 0.066401
v -0.014721 0.114045 0.067935
v -0.036257 0.159584 0.007499
v -0.008636 0.212851 0.093587
v 0.039668 0.255092 0.007510
v 0.057381 0.228244 0.007526
v -0.010818 0.266886 0.054866
v 0.014944 -0.000000 0.048660
v 0.024153 -0.000000 -0.045629
v 0.014944 0.016999 -0.048660
v -0.048660 0.016999 -0.014944
v -0.045629 -0.000000 -0.024153
v -0.024153 0.016999 -0.045629
v -0.045629 0.016999 0.024153
v -0.048660 -0.000000 0.014944
v 0.048660 -0.000000 -0.014944
v 0.045629 0.016999 -0.024153
v 0.048660 0.016999 0.014944
v 0.045629 -0.000000 0.024153
v 0.024153 0.016999 0.045629
v -0.014944 0.016999 0.048660
v -0.024153 -0.000000 0.045629
v -0.014944 -0.000000 -0.048660
vn 0.8625 -0.5038 -0.0476
vn 0.9453 0.3259 0.0138
vn 0.9753 0.2190 0.0305
vn 0.5965 0.7992 -0.0742
vn 0.2984 0.9539 0.0321
vn -0.4560 0.8893 -0.0330
vn -0.1327 0.9890 -0.0648
vn -0.6835 0.7282 -0.0504
vn -0.9529 0.3031 0.0107
vn -0.9803 0.1960 0.0261
vn -0.8594 -0.5103 -0.0306
vn -0.9397 -0.3417 -0.0143
vn -0.4309 -0.9011 0.0483
vn -0.1662 -0.9852 -0.0418
vn 0.4024 -0.9155 0.0067
vn 0.3385 -0.9387 0.0645
vn 0.9397 -0.3417 -0.0143
vn -0.9733 0.2281 -0.0270
vn -0.9517 0.3047 0.0368
vn -0.7237 0.6894 0.0308
vn -0.9641 -0.2655 0.0062
vn -0.8827 -0.4696 0.0159
vn -0.5735 -0.8180 0.0435
vn -0.2225 -0.9748 -0.0169
vn 0.2225 -0.9748 0.0169
vn 0.5728 -0.8166 -0.0715
vn 0.8827 -0.4696 -0.0159
vn 0.9517 0.3047 -0.0368
vn 0.9641 -0.2655 -0.0062
vn 0.9733 0.2281 0.0270
vn 0.4563 0.8898 -0.0109
vn 0.1653 0.9861 0.0149
vn 0.7237 0.6894 -0.0308
vn -0.1653 0.9861 -0.0149
vn -0.4563 0.8898 0.0109
vn 0.0000 0.0000 1.0000
vn -0.0000 0.0000 -1.0000
vn -0.5397 0.5074 0.6718
vn -0.5999 0.6849 0.4135
vn -0.7895 0.5549 0.2623
vn -0.9325 0.3094 0.1862
vn -0.7552 0.1317 -0.6422
vn -0.9874 0.0415 0.1527
vn -0.9679 -0.1017 -0.2297
vn -0.8581 0.1544 0.4898
vn -0.5030 -0.0195 0.8641
vn -0.5589 0.2472 0.7915
vn -0.2097 -0.2261 0.9513
vn -0.1510 0.0731 0.9858
vn 0.6983 0.2680 0.6637
vn 0.3772 0.1674 0.9109
vn 0.7127 -0.0383 0.7004
vn 0.0805 -0.0541 0.9953
vn 0.9921 -0.0003 0.1253
vn 0.8489 -0.4837 -0.2129
vn 0.7328 -0.1395 -0.6660
vn 0.1702 -0.2976 0.9394
vn 0.3847 -0.1188 0.9154
vn 0.6219 -0.3918 -0.6781
vn 0.1146 0.7465 -0.6555
vn -0.2088 0.9409 0.2668
vn 0.1543 0.9727 0.1732
vn 0.4898 0.6427 0.5891
vn 0.7570 0.5990 0.2609
vn 0.3938 0.8813 0.2610
vn -0.0930 0.7627 0.6401
vn -0.2408 0.7081 -0.6638
vn -0.4812 0.8604 0.1679
vn 0.5025 0.5868 -0.6349
vn -0.5970 0.4945 -0.6317
vn 0.2171 -0.5799 -0.7853
vn -0.0101 -0.9896 -0.1432
vn 0.5373 -0.8393 0.0836
vn -0.1939 -0.3477 -0.9174
vn 0.7564 -0.2038 0.6215
vn 0.9232 -0.1221 0.3643
vn 0.6148 -0.2093 0.7604
vn 0.2842 -0.0562 0.9571
vn 0.4424 -0.0302 0.8963
vn 0.5980 -0.1204 0.7924
vn 0.7882 -0.0409 0.6140
vn 0.4581 -0.2327 0.8579
vn -0.1327 0.3557 -0.9251
vn -0.7185 0.1595 -0.6770
vn -0.4952 -0.0926 -0.8638
vn -0.4843 -0.0835 0.8709
vn -0.1332 -0.0291 0.9907
vn -0.0517 -0.0707 0.9962
vn 0.1565 -0.2834 0.9461
vn -0.6578 -0.0121 -0.7531
vn -0.1785 0.1645 -0.9701
vn 0.0601 -0.0347 -0.9976
vn 0.7420 -0.0142 -0.6702
vn 0.4659 0.2074 -0.8602
vn 0.7314 0.1855 -0.6562
vn -0.0213 0.5907 -0.8066
vn 0.3982 0.5160 -0.7584
vn 0.2358 0.2083 -0.9492
vn -0.3464 0.4826 -0.8044
vn -0.6318 -0.0411 0.7741
vn -0.7934 -0.0612 0.6056
vn -0.7097 -0.6614 0.2426
vn -0.9819 0.1021 -0.1596
vn -0.7351 -0.6642 -0.1355
vn -0.2324 0.6570 -0.7172
vn -0.7000 0.3643 -0.6142
vn 0.1159 0.6951 -0.7095
vn -0.8936 0.0640 -0.4442
vn -0.5863 0.1559 -0.7949
vn 0.9465 0.0630 -0.3164
vn 0.9991 -0.0334 -0.0255
vn 0.8055 0.3057 -0.5077
vn 0.9838 0.0668 -0.1662
vn 0.9132 -0.0837 0.3988
vn 0.5401 0.4350 -0.7204
vn -0.6769 0.3604 -0.6418
vn -0.1523 0.5779 -0.8017
vn 0.8617 -0.0357 0.5061
vn 0.8510 0.0613 -0.5216
vn -0.9341 -0.0508 0.3533
vn -0.5707 -0.2503 0.7821
vn -0.7455 -0.1402 0.6516
vn -0.9998 -0.0210 0.0057
vn 0.1435 0.5554 -0.8191
vn 0.2957 0.2214 -0.9293
vn -0.9271 -0.0826 0.3656
vn 0.1253 -0.1350 0.9829
vn 0.8962 0.1346 0.4228
vn -0.2233 -0.2407 0.9446
vn -0.4855 -0.2181 0.8466
vn -0.6481 -0.1885 -0.7378
vn -0.4389 -0.4729 -0.7640
vn -0.5589 -0.8215 0.1130
vn -0.0817 0.3416 0.9363
vn 0.3034 0.4758 0.8255
vn 0.9387 0.2906 0.1853
vn 0.7331 0.2548 -0.6306
vn -0.2707 -0.0250 -0.9623
vn 0.2707 0.0250 -0.9623
vn 0.3727 -0.6164 -0.6937
vn -0.4673 -0.0184 -0.8839
vn -0.6790 -0.6171 -0.3976
vn -0.9623 0.0250 -0.2707
vn -0.8839 -0.0184 0.4673
vn -0.7399 -0.6406 0.2052
vn -0.4673 0.0184 0.8839
vn 0.4673 -0.0184 0.8839
vn 0.8839 0.0184 0.4674
vn 0.9623 0.0250 0.2707
vn 0.2707 -0.0250 0.9623
vn -0.2707 0.0250 0.9623
vn 0.8839 -0.0184 -0.4673
vn 0.7476 -0.6405 -0.1756
vn -0.0000 -1.0000 -0.0000
vn -0.0090 -0.0035 -1.0000
vn 0.0000 0.0004 -1.0000
vn 0.0001 0.0002 -1.0000
vn 0.0004 -1.0000 -0.0003
vn 0.0002 -1.0000 -0.0002
vn 0.0000 -1.0000 -0.0001
vn 0.0010 -1.0000 -0.0002
vn 0.0011 -1.0000 -0.0001
vn 0.0008 -1.0000 -0.0001
vn 0.0002 -1.0000 -0.0000
vn -0.0003 -1.0000 -0.0001
vn -0.0001 -1.0000 -0.0000
usemtl Material__1.012
s 1
f 17//1 3//2 2//3
f 4//4 3//2 5//5
f 2//3 3//2 4//4
f 6//6 7//7 5//5
f 7//7 6//6 8//8
f 4//4 5//5 7//7
f 9//9 8//8 6//6
f 10//10 9//9 12//11
f 9//9 10//10 8//8
f 12//11 11//12 13//13
f 12//11 13//13 14//14
f 14//14 15//15 16//16
f 1//17 17//1 15//15
f 16//16 15//15 17//1
f 19//18 18//19 35//20
f 3//2 17//1 1//17
f 20//21 18//19 19//18
f 20//21 21//22 18//19
f 22//23 21//22 20//21
f 22//23 24//24 21//22
f 23//25 25//26 24//24
f 25//26 23//25 26//27
f 24//24 22//23 23//25
f 11//12 12//11 9//9
f 28//28 27//29 26//27
f 28//28 29//30 27//29
f 25//26 26//27 27//29
f 15//15 14//14 13//13
f 30//31 32//32 31//33
f 32//32 30//31 33//34
f 31//33 28//28 30//31
f 28//28 31//33 29//30
f 33//34 34//35 32//32
f 34//35 35//20 18//19
f 34//35 33//34 35//20
f 33//36 14//36 16//36
f 30//36 14//36 33//36
f 12//36 14//36 30//36
f 28//36 12//36 30//36
f 10//36 12//36 28//36
f 26//36 10//36 28//36
f 8//36 10//36 26//36
f 23//36 8//36 26//36
f 7//36 8//36 23//36
f 4//36 7//36 23//36
f 22//36 4//36 23//36
f 2//36 4//36 22//36
f 20//36 2//36 22//36
f 19//36 2//36 20//36
f 17//36 2//36 19//36
f 35//36 17//36 19//36
f 16//36 17//36 35//36
f 33//36 16//36 35//36
f 1//37 15//37 34//37
f 18//37 1//37 34//37
f 3//37 1//37 18//37
f 21//37 3//37 18//37
f 21//37 5//37 3//37
f 24//37 5//37 21//37
f 6//37 5//37 24//37
f 25//37 6//37 24//37
f 9//37 6//37 25//37
f 27//37 9//37 25//37
f 29//37 9//37 27//37
f 29//37 11//37 9//37
f 31//37 11//37 29//37
f 13//37 11//37 31//37
f 32//37 13//37 31//37
f 15//37 13//37 32//37
f 34//37 15//37 32//37
f 40//38 69//39 39//40
f 38//41 45//42 37//43
f 37//43 45//42 47//44
f 48//45 49//46 50//47
f 61//48 132//49 49//46
f 54//50 53//51 55//52
f 61//48 51//53 132//49
f 94//54 59//55 58//56
f 52//57 51//53 61//48
f 52//57 60//58 51//53
f 60//58 55//52 53//51
f 63//59 58//56 59//55
f 65//60 135//61 66//62
f 43//63 44//64 67//65
f 43//63 67//65 68//66
f 69//39 68//66 135//61
f 71//67 135//61 65//60
f 69//39 70//68 39//40
f 70//68 135//61 71//67
f 66//62 67//65 133//69
f 70//68 71//67 72//70
f 95//71 73//72 64//73
f 73//72 95//71 74//74
f 77//75 76//76 93//77
f 79//78 80//79 81//80
f 125//81 77//75 81//80
f 78//82 79//78 81//80
f 83//83 84//84 90//85
f 90//85 84//84 47//44
f 88//86 89//87 91//88
f 93//77 62//89 78//82
f 64//73 63//59 95//71
f 91//88 80//79 79//78
f 80//79 91//88 89//87
f 105//90 98//91 97//92
f 99//93 101//94 100//95
f 104//96 111//97 96//98
f 111//97 101//94 96//98
f 104//96 98//91 110//99
f 127//100 106//101 107//102
f 107//102 123//103 108//104
f 104//96 110//99 121//105
f 109//106 121//105 110//99
f 104//96 121//105 120//107
f 103//108 109//106 102//109
f 111//97 100//95 101//94
f 120//107 111//97 104//96
f 99//93 113//110 114//111
f 113//110 100//95 112//112
f 110//99 102//109 109//106
f 113//110 99//93 100//95
f 108//104 103//108 105//90
f 100//95 111//97 112//112
f 123//103 109//106 103//108
f 108//104 123//103 103//108
f 116//113 115//114 114//111
f 117//115 116//113 112//112
f 113//110 112//112 116//113
f 116//113 114//111 113//110
f 122//116 119//117 121//105
f 123//103 122//116 109//106
f 115//114 124//118 114//111
f 125//81 124//118 115//114
f 125//81 80//79 124//118
f 116//113 117//115 75//119
f 126//120 106//101 87//121
f 87//121 129//122 126//120
f 86//123 84//84 122//116
f 118//124 74//74 82//125
f 81//80 80//79 125//81
f 76//76 77//75 115//114
f 94//54 76//76 116//113
f 75//119 94//54 116//113
f 82//125 74//74 95//71
f 106//101 88//86 87//121
f 89//87 88//86 127//100
f 126//120 86//123 123//103
f 86//123 126//120 85//126
f 85//126 126//120 129//122
f 127//100 88//86 106//101
f 62//89 92//127 78//82
f 93//77 76//76 55//52
f 81//80 77//75 78//82
f 93//77 78//82 77//75
f 95//71 63//59 82//125
f 63//59 75//119 82//125
f 92//127 91//88 79//78
f 79//78 78//82 92//127
f 76//76 94//54 56//128
f 96//98 99//93 97//92
f 104//96 96//98 98//91
f 98//91 105//90 102//109
f 99//93 96//98 101//94
f 102//109 110//99 98//91
f 118//124 82//125 117//115
f 117//115 82//125 75//119
f 84//84 83//83 119//117
f 119//117 122//116 84//84
f 76//76 115//114 116//113
f 77//75 125//81 115//114
f 107//102 106//101 126//120
f 83//83 74//74 119//117
f 86//123 122//116 123//103
f 74//74 118//124 119//117
f 123//103 107//102 126//120
f 121//105 109//106 122//116
f 111//97 120//107 118//124
f 118//124 117//115 111//97
f 112//112 111//97 117//115
f 118//124 120//107 121//105
f 119//117 118//124 121//105
f 105//90 103//108 102//109
f 96//98 97//92 98//91
f 56//128 55//52 76//76
f 92//127 130//129 91//88
f 130//129 128//130 87//121
f 47//44 36//131 90//85
f 129//122 48//45 85//126
f 59//55 94//54 75//119
f 46//132 90//85 36//131
f 37//43 85//126 48//45
f 130//129 92//127 62//89
f 37//43 47//44 86//123
f 90//85 74//74 83//83
f 86//123 47//44 84//84
f 130//129 87//121 88//86
f 91//88 130//129 88//86
f 129//122 87//121 128//130
f 37//43 86//123 85//126
f 74//74 90//85 46//132
f 131//133 74//74 46//132
f 74//74 131//133 73//72
f 72//70 39//40 70//68
f 41//134 42//135 68//66
f 133//69 65//60 66//62
f 58//56 57//136 94//54
f 57//136 44//64 56//128
f 132//49 51//53 41//134
f 50//47 132//49 41//134
f 36//131 47//44 45//42
f 39//40 38//41 48//45
f 40//38 39//40 48//45
f 51//53 53//51 41//134
f 132//49 50//47 49//46
f 37//43 48//45 38//41
f 54//50 56//128 44//64
f 48//45 50//47 40//38
f 41//134 53//51 42//135
f 68//66 40//38 41//134
f 68//66 69//39 40//38
f 43//63 68//66 42//135
f 38//41 39//40 72//70
f 45//42 38//41 72//70
f 67//65 44//64 133//69
f 133//69 44//64 134//137
f 57//136 58//56 134//137
f 44//64 57//136 134//137
f 53//51 54//50 42//135
f 41//134 40//38 50//47
f 43//63 42//135 54//50
f 44//64 43//63 54//50
f 46//132 36//131 131//133
f 49//46 48//45 129//122
f 61//48 49//46 128//130
f 61//48 62//89 52//57
f 55//52 60//58 93//77
f 55//52 56//128 54//50
f 62//89 61//48 130//129
f 128//130 49//46 129//122
f 52//57 93//77 60//58
f 57//136 56//128 94//54
f 63//59 59//55 75//119
f 62//89 93//77 52//57
f 128//130 130//129 61//48
f 135//61 70//68 69//39
f 68//66 66//62 135//61
f 67//65 66//62 68//66
f 58//56 63//59 64//73
f 60//58 53//51 51//53
f 151//138 138//139 137//140
f 151//138 141//141 138//139
f 141//141 140//142 139//143
f 142//144 143//145 150//146
f 139//143 140//142 143//145
f 148//147 147//148 146//149
f 148//147 136//150 147//148
f 142//144 150//146 149//151
f 149//151 136//150 148//147
f 141//141 151//138 140//142
f 137//140 138//139 145//152
f 145//152 144//153 137//140
f 149//151 150//146 136//150
f 147//154 137//140 144//153
f 136//154 137//140 147//154
f 151//154 137//140 136//154
f 150//154 151//154 136//154
f 143//145 151//154 150//154
f 140//142 151//154 143//145
f 143//145 142//144 139//143
f 146//149 144//153 145//152
f 144//153 146//149 147//148
f 131//155 36//131 45//42
f 72//70 131//155 45//42
f 73//156 131//155 72//70
f 64//157 73//156 72//70
f 71//67 64//157 72//70
f 65//60 64//157 71//67
f 65//60 58//56 64//157
f 133//69 58//56 65//60
f 134//137 58//56 133//69
f 99//158 138//159 97//160
f 99//158 145//161 138//159
f 114//162 145//161 99//158
f 146//163 145//161 114//162
f 124//164 146//163 114//162
f 148//154 146//163 124//164
f 80//154 148//154 124//164
f 89//154 148//154 80//154
f 89//154 149//154 148//154
f 127//154 149//154 89//154
f 127//154 142//154 149//154
f 107//102 142//154 127//154
f 139//165 142//154 107//102
f 108//104 139//165 107//102
f 105//166 139//165 108//104
f 105//166 141//154 139//165
f 97//160 141//154 105//166
f 97//160 138//159 141//154
