# Blender v2.79 (sub 0) OBJ File: ''
# www.blender.org
mtllib SoftTape.mtl
o SoftTape_SoftTape_Plane_SoftTape_Plane.001
v 0.000000 1.000000 0.000000
v -0.034828 1.000000 0.000000
v -0.034828 0.925926 0.000000
v 0.000000 0.925926 0.000000
v -0.034828 0.851852 0.000000
v 0.000000 0.851852 0.000000
v -0.034828 0.777778 0.000000
v 0.000000 0.777778 0.000000
v -0.034828 0.703704 0.000000
v 0.000000 0.703704 0.000000
v -0.034828 0.629629 0.000000
v 0.000000 0.629630 0.000000
v -0.034828 0.555555 0.000000
v 0.000000 0.555555 0.000000
v -0.034828 0.481481 0.000000
v 0.000000 0.481481 0.000000
v -0.034828 0.407407 0.000000
v 0.000000 0.407407 0.000000
v -0.034828 0.333333 0.000000
v 0.000000 0.333333 0.000000
v -0.034828 0.259259 0.000000
v 0.000000 0.259259 0.000000
v -0.034828 0.185185 0.000000
v 0.000000 0.185185 0.000000
v -0.034828 0.111111 0.000000
v 0.000000 0.111111 0.000000
v -0.034828 0.037037 0.000000
v 0.000000 0.037037 0.000000
v -0.034828 -0.037037 0.000000
v 0.000000 -0.037037 0.000000
v -0.034828 -0.111111 0.000000
v 0.000000 -0.111111 0.000000
v -0.034828 -0.185185 0.000000
v 0.000000 -0.185185 0.000000
v 0.034828 -0.111111 0.000000
v 0.034828 -0.185185 0.000000
v 0.034828 -0.037037 0.000000
v 0.034828 0.037037 0.000000
v 0.034828 0.111111 0.000000
v 0.034828 0.185185 0.000000
v 0.034828 0.259259 0.000000
v 0.034828 0.333333 0.000000
v 0.034828 0.407407 0.000000
v 0.034828 0.481481 0.000000
v 0.034828 0.555556 0.000000
v 0.034828 0.629630 0.000000
v 0.034828 0.703704 0.000000
v 0.034828 0.777778 0.000000
v 0.034828 0.851852 0.000000
v 0.034828 0.925926 0.000000
v 0.034828 1.000000 0.000000
v 0.000000 -0.925926 0.000000
v -0.034828 -0.925926 0.000000
v -0.034828 -1.000000 0.000000
v 0.000000 -1.000000 0.000000
v -0.034828 -0.259259 0.000000
v 0.000000 -0.259259 0.000000
v -0.034828 -0.333333 0.000000
v 0.000000 -0.333333 0.000000
v -0.034828 -0.407407 0.000000
v 0.000000 -0.407407 0.000000
v -0.034828 -0.481481 0.000000
v 0.000000 -0.481481 0.000000
v -0.034828 -0.555556 0.000000
v 0.000000 -0.555555 0.000000
v -0.034828 -0.629630 0.000000
v 0.000000 -0.629630 0.000000
v -0.034828 -0.703704 0.000000
v 0.000000 -0.703704 0.000000
v -0.034828 -0.777778 0.000000
v 0.000000 -0.777778 0.000000
v -0.034828 -0.851852 0.000000
v 0.000000 -0.851852 0.000000
v 0.034828 -0.851852 0.000000
v 0.034828 -0.925926 0.000000
v 0.034828 -0.777778 0.000000
v 0.034828 -0.703704 0.000000
v 0.034828 -0.629629 0.000000
v 0.034828 -0.555555 0.000000
v 0.034828 -0.481481 0.000000
v 0.034828 -0.407407 0.000000
v 0.034828 -0.333333 0.000000
v 0.034828 -0.259259 0.000000
v 0.034828 -1.000000 0.000000
vt 0.011823 0.885226
vt -0.009462 0.825887
vt 0.025418 0.797694
vt 0.046702 0.857033
vt 0.060297 0.769501
vt 0.081581 0.828840
vt 0.095176 0.741308
vt 0.116460 0.800647
vt 0.130055 0.713115
vt 0.151340 0.772453
vt 0.164935 0.684921
vt 0.186219 0.744260
vt 0.199814 0.656728
vt 0.221098 0.716067
vt 0.234693 0.628535
vt 0.255978 0.687874
vt 0.269572 0.600342
vt 0.290857 0.659681
vt 0.304452 0.572149
vt 0.325736 0.631488
vt 0.339331 0.543956
vt 0.360615 0.603295
vt 0.374210 0.515763
vt 0.395494 0.575101
vt 0.409089 0.487570
vt 0.430374 0.546909
vt 0.443968 0.459377
vt 0.465253 0.518715
vt 0.478847 0.431183
vt 0.500132 0.490522
vt 0.513727 0.402990
vt 0.535011 0.462329
vt 0.548606 0.374797
vt 0.569890 0.434136
vt 0.556296 0.521668
vt 0.591175 0.493475
vt 0.521417 0.549861
vt 0.486537 0.578054
vt 0.451658 0.606247
vt 0.416779 0.634440
vt 0.381900 0.662634
vt 0.347021 0.690827
vt 0.312141 0.719020
vt 0.277262 0.747213
vt 0.242383 0.775406
vt 0.207503 0.803599
vt 0.172624 0.831792
vt 0.137745 0.859985
vt 0.102866 0.888178
vt 0.067987 0.916371
vt 0.033107 0.944565
vt 0.918683 0.152205
vt 0.897398 0.092866
vt 0.932277 0.064673
vt 0.953562 0.124012
vt 0.583485 0.346604
vt 0.604770 0.405943
vt 0.618364 0.318411
vt 0.639649 0.377750
vt 0.653243 0.290218
vt 0.674528 0.349557
vt 0.688123 0.262025
vt 0.709407 0.321364
vt 0.723002 0.233832
vt 0.744286 0.293171
vt 0.757881 0.205639
vt 0.779166 0.264977
vt 0.792760 0.177445
vt 0.814045 0.236784
vt 0.827640 0.149252
vt 0.848924 0.208591
vt 0.862519 0.121059
vt 0.883804 0.180398
vt 0.905088 0.239737
vt 0.939967 0.211544
vt 0.870209 0.267930
vt 0.835330 0.296123
vt 0.800450 0.324317
vt 0.765571 0.352510
vt 0.730692 0.380703
vt 0.695812 0.408896
vt 0.660933 0.437089
vt 0.626054 0.465282
vt 0.974846 0.183351
vn 0.0000 0.0000 1.0000
usemtl None
s 1
f 1/1/1 2/2/1 3/3/1 4/4/1
f 4/4/1 3/3/1 5/5/1 6/6/1
f 6/6/1 5/5/1 7/7/1 8/8/1
f 8/8/1 7/7/1 9/9/1 10/10/1
f 10/10/1 9/9/1 11/11/1 12/12/1
f 12/12/1 11/11/1 13/13/1 14/14/1
f 14/14/1 13/13/1 15/15/1 16/16/1
f 16/16/1 15/15/1 17/17/1 18/18/1
f 18/18/1 17/17/1 19/19/1 20/20/1
f 20/20/1 19/19/1 21/21/1 22/22/1
f 22/22/1 21/21/1 23/23/1 24/24/1
f 24/24/1 23/23/1 25/25/1 26/26/1
f 26/26/1 25/25/1 27/27/1 28/28/1
f 28/28/1 27/27/1 29/29/1 30/30/1
f 30/30/1 29/29/1 31/31/1 32/32/1
f 32/32/1 31/31/1 33/33/1 34/34/1
f 35/35/1 32/32/1 34/34/1 36/36/1
f 37/37/1 30/30/1 32/32/1 35/35/1
f 38/38/1 28/28/1 30/30/1 37/37/1
f 39/39/1 26/26/1 28/28/1 38/38/1
f 40/40/1 24/24/1 26/26/1 39/39/1
f 41/41/1 22/22/1 24/24/1 40/40/1
f 42/42/1 20/20/1 22/22/1 41/41/1
f 43/43/1 18/18/1 20/20/1 42/42/1
f 44/44/1 16/16/1 18/18/1 43/43/1
f 45/45/1 14/14/1 16/16/1 44/44/1
f 46/46/1 12/12/1 14/14/1 45/45/1
f 47/47/1 10/10/1 12/12/1 46/46/1
f 48/48/1 8/8/1 10/10/1 47/47/1
f 49/49/1 6/6/1 8/8/1 48/48/1
f 50/50/1 4/4/1 6/6/1 49/49/1
f 51/51/1 1/1/1 4/4/1 50/50/1
f 52/52/1 53/53/1 54/54/1 55/55/1
f 34/34/1 33/33/1 56/56/1 57/57/1
f 57/57/1 56/56/1 58/58/1 59/59/1
f 59/59/1 58/58/1 60/60/1 61/61/1
f 61/61/1 60/60/1 62/62/1 63/63/1
f 63/63/1 62/62/1 64/64/1 65/65/1
f 65/65/1 64/64/1 66/66/1 67/67/1
f 67/67/1 66/66/1 68/68/1 69/69/1
f 69/69/1 68/68/1 70/70/1 71/71/1
f 71/71/1 70/70/1 72/72/1 73/73/1
f 73/73/1 72/72/1 53/53/1 52/52/1
f 74/74/1 73/73/1 52/52/1 75/75/1
f 76/76/1 71/71/1 73/73/1 74/74/1
f 77/77/1 69/69/1 71/71/1 76/76/1
f 78/78/1 67/67/1 69/69/1 77/77/1
f 79/79/1 65/65/1 67/67/1 78/78/1
f 80/80/1 63/63/1 65/65/1 79/79/1
f 81/81/1 61/61/1 63/63/1 80/80/1
f 82/82/1 59/59/1 61/61/1 81/81/1
f 83/83/1 57/57/1 59/59/1 82/82/1
f 36/36/1 34/34/1 57/57/1 83/83/1
f 75/75/1 52/52/1 55/55/1 84/84/1
