# Blender v2.79 (sub 0) OBJ File: ''
# www.blender.org
mtllib Cube_001_001.mtl
o /ambf/env/Cube_001_001_Cube_001_001_/ambf/env/Cube_001_Cube_001
v -0.035662 -0.035662 -0.044218
v -0.035662 -0.035662 0.044218
v -0.035662 0.035662 0.044218
v -0.035662 0.035662 -0.044218
v 0.035662 0.035662 0.044218
v 0.035662 0.035662 -0.044218
v 0.035662 -0.035662 0.044218
v 0.035662 -0.035662 -0.044218
vt 0.333333 0.500000
vt 0.333333 0.000000
vt 0.666667 0.000000
vt 0.666667 0.500000
vt 0.000000 0.500000
vt 0.000000 0.000000
vt 0.333333 0.000000
vt 0.333333 0.500000
vt 0.333333 1.000000
vt 0.000000 1.000000
vt 0.000000 0.500000
vt 0.666667 0.500000
vt 0.666667 1.000000
vt 0.333333 1.000000
vt 0.333333 0.500000
vt 1.000000 0.403258
vt 0.666667 0.403258
vt 0.666667 0.000000
vt 1.000000 0.000000
vt 1.000000 0.903258
vt 0.666667 0.903258
vt 1.000000 0.500000
vn -1.0000 0.0000 0.0000
vn 0.0000 1.0000 0.0000
vn 1.0000 0.0000 0.0000
vn 0.0000 -1.0000 0.0000
vn 0.0000 0.0000 -1.0000
vn 0.0000 0.0000 1.0000
usemtl BODY_Cube_001mat.001
s 1
f 1/1/1 2/2/1 3/3/1
f 3/3/1 4/4/1 1/1/1
f 4/5/2 3/6/2 5/7/2
f 5/7/2 6/8/2 4/5/2
f 6/8/3 5/9/3 7/10/3
f 7/10/3 8/11/3 6/8/3
f 2/12/4 1/13/4 8/14/4
f 8/14/4 7/15/4 2/12/4
f 8/16/5 1/17/5 4/18/5
f 4/18/5 6/19/5 8/16/5
f 5/20/6 3/21/6 2/12/6
f 2/12/6 7/22/6 5/20/6
