# Blender v2.79 (sub 0) OBJ File: ''
# www.blender.org
mtllib FixedBase.mtl
o /ambf/env/FixedBase_FixedBase_/ambf/env/Cube_Cube
v -0.491651 -1.176377 -0.012961
v -0.491651 -1.176377 0.012961
v -0.491651 1.176377 0.012961
v -0.491651 1.176377 -0.012961
v 0.491651 1.176377 0.012961
v 0.491651 1.176377 -0.012961
v 0.491651 -1.176377 0.012961
v 0.491651 -1.176377 -0.012961
vt 0.648699 -0.017039
vt 0.648699 0.006574
vt 0.204341 0.006574
vt 0.204341 -0.017039
vt 0.648699 0.030188
vt 0.648699 0.053801
vt 0.204341 0.053801
vt 0.204341 0.030188
vt 0.648699 0.053801
vt 0.648699 0.077414
vt 0.204341 0.077414
vt 0.204341 0.053802
vt 0.648699 0.030188
vt 0.204341 0.030188
vt 0.204341 0.006575
vt 0.648699 0.077414
vt 1.093057 0.077414
vt 1.093058 0.973105
vt 0.648699 0.973105
vt 0.204341 0.077414
vt 0.648699 0.077414
vt 0.648699 0.973105
vt 0.204341 0.973105
vn -1.0000 0.0000 0.0000
vn 0.0000 1.0000 0.0000
vn 1.0000 0.0000 0.0000
vn 0.0000 -1.0000 0.0000
vn 0.0000 0.0000 -1.0000
vn 0.0000 0.0000 1.0000
usemtl BODY_Cubemat.001
s 1
f 1/1/1 2/2/1 3/3/1
f 3/3/1 4/4/1 1/1/1
f 4/5/2 3/6/2 5/7/2
f 5/7/2 6/8/2 4/5/2
f 6/9/3 5/10/3 7/11/3
f 7/11/3 8/12/3 6/9/3
f 2/2/4 1/13/4 8/14/4
f 8/14/4 7/15/4 2/2/4
f 8/16/5 1/17/5 4/18/5
f 4/18/5 6/19/5 8/16/5
f 5/20/6 3/21/6 2/22/6
f 2/22/6 7/23/6 5/20/6
