# Blender v2.79 (sub 0) OBJ File: ''
# www.blender.org
mtllib SDTip1.mtl
o /ambf/env/SDTip1_SDTip1_/ambf/env/SDTip1_SDTip1
v 0.000000 0.021997 -0.100260
v 0.000000 0.021997 0.100260
v 0.004291 0.021575 0.100260
v 0.004291 0.021575 -0.100260
v 0.008418 0.020323 0.100260
v 0.008418 0.020323 -0.100260
v 0.012221 0.018290 0.100260
v 0.012221 0.018290 -0.100260
v 0.015554 0.015554 0.100260
v 0.015554 0.015554 -0.100260
v 0.018290 0.012221 0.100260
v 0.018290 0.012221 -0.100260
v 0.020323 0.008418 0.100260
v 0.020323 0.008418 -0.100260
v 0.021575 0.004291 0.100260
v 0.021575 0.004291 -0.100260
v 0.021997 0.000000 0.100260
v 0.021997 0.000000 -0.100260
v 0.021575 -0.004291 0.100260
v 0.021575 -0.004291 -0.100260
v 0.020323 -0.008418 0.100260
v 0.020323 -0.008418 -0.100260
v 0.018290 -0.012221 0.100260
v 0.018290 -0.012221 -0.100260
v 0.015554 -0.015554 0.100260
v 0.015554 -0.015554 -0.100260
v 0.012221 -0.018290 0.100260
v 0.012221 -0.018290 -0.100260
v 0.008418 -0.020323 0.100260
v 0.008418 -0.020323 -0.100260
v 0.004291 -0.021575 0.100260
v 0.004291 -0.021575 -0.100260
v 0.000000 -0.021997 0.100260
v 0.000000 -0.021997 -0.100260
v -0.004291 -0.021575 0.100260
v -0.004291 -0.021575 -0.100260
v -0.008418 -0.020323 0.100260
v -0.008418 -0.020323 -0.100260
v -0.012221 -0.018290 0.100260
v -0.012221 -0.018290 -0.100260
v -0.015554 -0.015554 0.100260
v -0.015554 -0.015554 -0.100260
v -0.018290 -0.012221 0.100260
v -0.018290 -0.012221 -0.100260
v -0.020323 -0.008418 0.100260
v -0.020323 -0.008418 -0.100260
v -0.021575 -0.004291 0.100260
v -0.021575 -0.004291 -0.100260
v -0.021997 0.000000 0.100260
v -0.021997 0.000000 -0.100260
v -0.021575 0.004291 0.100260
v -0.021575 0.004291 -0.100260
v -0.020323 0.008418 0.100260
v -0.020323 0.008418 -0.100260
v -0.018290 0.012221 0.100260
v -0.018290 0.012221 -0.100260
v -0.015554 0.015554 0.100260
v -0.015554 0.015554 -0.100260
v -0.012221 0.018290 0.100260
v -0.012221 0.018290 -0.100260
v -0.008418 0.020323 0.100260
v -0.008418 0.020323 -0.100260
v -0.004291 0.021575 0.100260
v -0.004291 0.021575 -0.100260
vn 0.0984 0.9952 -0.0000
vn 0.0979 0.9952 0.0000
vn 0.2903 0.9569 0.0000
vn 0.4714 0.8819 0.0000
vn 0.6345 0.7729 0.0000
vn 0.7729 0.6345 0.0000
vn 0.8819 0.4714 0.0000
vn 0.9569 0.2903 0.0000
vn 0.9951 0.0984 0.0000
vn 0.9952 0.0979 0.0000
vn 0.9952 -0.0979 0.0000
vn 0.9951 -0.0984 -0.0000
vn 0.9569 -0.2903 0.0000
vn 0.8819 -0.4714 0.0000
vn 0.7729 -0.6345 0.0000
vn 0.6345 -0.7729 0.0000
vn 0.4714 -0.8819 0.0000
vn 0.2903 -0.9569 0.0000
vn 0.0984 -0.9952 0.0000
vn 0.0979 -0.9952 0.0000
vn -0.0984 -0.9952 -0.0000
vn -0.0979 -0.9952 0.0000
vn -0.2903 -0.9569 0.0000
vn -0.4714 -0.8819 0.0000
vn -0.6345 -0.7729 0.0000
vn -0.7729 -0.6345 0.0000
vn -0.8819 -0.4714 0.0000
vn -0.9569 -0.2903 0.0000
vn -0.9951 -0.0984 0.0000
vn -0.9952 -0.0979 0.0000
vn -0.9952 0.0979 0.0000
vn -0.9951 0.0984 -0.0000
vn -0.9569 0.2903 0.0000
vn -0.8819 0.4714 0.0000
vn -0.7729 0.6345 0.0000
vn -0.6345 0.7729 0.0000
vn -0.4714 0.8819 0.0000
vn 0.0000 0.0000 1.0000
vn -0.2903 0.9569 0.0000
vn -0.0984 0.9952 0.0000
vn -0.0979 0.9952 0.0000
vn -0.0000 0.0000 -1.0000
usemtl BODY_SDTip1mat.001
s 1
f 1//1 2//2 3//1
f 3//1 4//2 1//1
f 4//3 3//3 5//3
f 5//3 6//3 4//3
f 6//4 5//4 7//4
f 7//4 8//4 6//4
f 8//5 7//5 9//5
f 9//5 10//5 8//5
f 10//6 9//6 11//6
f 11//6 12//6 10//6
f 12//7 11//7 13//7
f 13//7 14//7 12//7
f 14//8 13//8 15//8
f 15//8 16//8 14//8
f 16//9 15//10 17//10
f 17//10 18//10 16//9
f 18//11 17//11 19//12
f 19//12 20//11 18//11
f 20//13 19//13 21//13
f 21//13 22//13 20//13
f 22//14 21//14 23//14
f 23//14 24//14 22//14
f 24//15 23//15 25//15
f 25//15 26//15 24//15
f 26//16 25//16 27//16
f 27//16 28//16 26//16
f 28//17 27//17 29//17
f 29//17 30//17 28//17
f 30//18 29//18 31//18
f 31//18 32//18 30//18
f 32//19 31//20 33//19
f 33//19 34//20 32//19
f 34//21 33//22 35//21
f 35//21 36//22 34//21
f 36//23 35//23 37//23
f 37//23 38//23 36//23
f 38//24 37//24 39//24
f 39//24 40//24 38//24
f 40//25 39//25 41//25
f 41//25 42//25 40//25
f 42//26 41//26 43//26
f 43//26 44//26 42//26
f 44//27 43//27 45//27
f 45//27 46//27 44//27
f 46//28 45//28 47//28
f 47//28 48//28 46//28
f 48//29 47//30 49//30
f 49//30 50//30 48//29
f 50//31 49//31 51//32
f 51//32 52//31 50//31
f 52//33 51//33 53//33
f 53//33 54//33 52//33
f 54//34 53//34 55//34
f 55//34 56//34 54//34
f 56//35 55//35 57//35
f 57//35 58//35 56//35
f 58//36 57//36 59//36
f 59//36 60//36 58//36
f 60//37 59//37 61//37
f 61//37 62//37 60//37
f 5//38 3//38 2//38
f 2//38 63//38 61//38
f 61//38 59//38 57//38
f 57//38 55//38 53//38
f 53//38 51//38 49//38
f 49//38 47//38 45//38
f 45//38 43//38 41//38
f 41//38 39//38 37//38
f 37//38 35//38 33//38
f 33//38 31//38 29//38
f 29//38 27//38 25//38
f 25//38 23//38 21//38
f 21//38 19//38 17//38
f 17//38 15//38 13//38
f 13//38 11//38 9//38
f 9//38 7//38 5//38
f 5//38 2//38 61//38
f 61//38 57//38 53//38
f 53//38 49//38 45//38
f 45//38 41//38 37//38
f 37//38 33//38 29//38
f 29//38 25//38 21//38
f 21//38 17//38 13//38
f 13//38 9//38 5//38
f 5//38 61//38 53//38
f 53//38 45//38 37//38
f 37//38 29//38 21//38
f 21//38 13//38 5//38
f 5//38 53//38 37//38
f 37//38 21//38 5//38
f 62//39 61//39 63//39
f 63//39 64//39 62//39
f 2//40 1//41 64//40
f 64//40 63//41 2//40
f 64//42 1//42 4//42
f 4//42 6//42 8//42
f 8//42 10//42 12//42
f 12//42 14//42 16//42
f 16//42 18//42 20//42
f 20//42 22//42 24//42
f 24//42 26//42 28//42
f 28//42 30//42 32//42
f 32//42 34//42 36//42
f 36//42 38//42 40//42
f 40//42 42//42 44//42
f 44//42 46//42 48//42
f 48//42 50//42 52//42
f 52//42 54//42 56//42
f 56//42 58//42 60//42
f 60//42 62//42 64//42
f 64//42 4//42 8//42
f 8//42 12//42 16//42
f 16//42 20//42 24//42
f 24//42 28//42 32//42
f 32//42 36//42 40//42
f 40//42 44//42 48//42
f 48//42 52//42 56//42
f 56//42 60//42 64//42
f 64//42 8//42 16//42
f 16//42 24//42 32//42
f 32//42 40//42 48//42
f 48//42 56//42 64//42
f 64//42 16//42 32//42
f 32//42 48//42 64//42
