# Blender v2.79 (sub 0) OBJ File: 'KUKA.blend'
# www.blender.org
mtllib link7.mtl
o link7_object.008
v -0.027672 0.015111 0.021088
v -0.018192 0.026154 0.020786
v -0.026308 0.026004 0.006145
v -0.033510 0.014904 0.004212
v -0.032959 0.014943 -0.007939
v -0.025421 0.026001 -0.009726
v -0.027527 0.015004 -0.022344
v -0.016746 0.026009 -0.024677
v -0.015042 0.015074 -0.034406
v 0.000157 0.026136 -0.032237
v -0.000726 0.014910 -0.040048
v 0.010871 0.026003 -0.033582
v 0.016206 0.015129 -0.039600
v 0.023965 0.026064 -0.028354
v 0.032335 0.014983 -0.031259
v 0.034949 0.026147 -0.016123
v 0.043249 0.015003 -0.017157
v 0.039387 0.026001 -0.004863
v 0.046751 0.014880 0.002513
v 0.038268 0.026075 0.007010
v 0.034962 0.031000 0.013442
v 0.038140 0.031003 -0.000448
v 0.042723 0.014948 0.016654
v 0.034688 0.026103 0.016167
v 0.033885 0.015047 0.029191
v 0.025248 0.030998 0.025246
v 0.024966 0.023002 0.020526
v 0.026432 0.031012 0.019436
v 0.025929 0.022990 0.014356
v 0.005930 0.031004 0.031722
v -0.003204 0.025997 0.029717
v -0.004773 0.026010 0.031145
v 0.003593 0.014932 0.039643
v -0.012840 0.015147 0.034969
v -0.020767 0.031004 -0.016921
v -0.022027 0.025999 -0.014647
v -0.025010 0.031003 -0.003433
v 0.011113 0.031003 -0.032165
v 0.024736 0.022971 -0.021303
v 0.027378 0.031004 -0.018968
v 0.026722 0.030996 -0.024832
v 0.025306 0.026003 -0.025939
v 0.026972 0.023000 -0.016532
v 0.022755 0.030998 -0.014968
v 0.021677 0.022981 -0.015817
v 0.034996 0.030999 -0.014321
v 0.018616 0.024998 0.010192
v 0.016520 0.031001 0.012341
v -0.001470 0.025001 0.013588
v -0.006658 0.031002 0.009236
v -0.007582 0.024997 0.006798
v -0.012370 0.030998 0.025120
v -0.013427 0.023000 0.019415
v -0.009320 0.022998 0.019776
v -0.014335 0.031000 0.017902
v -0.023110 0.031001 0.011495
v -0.013854 0.022990 0.015374
v 0.019039 0.024997 -0.010501
v 0.017251 0.031001 -0.012195
v -0.002316 0.025000 -0.014233
v -0.008786 0.031003 -0.006118
v -0.009350 0.030994 -0.020948
v -0.014595 0.023004 -0.017935
v -0.009358 0.022972 -0.020664
v -0.000448 0.031002 -0.014822
v -0.010005 0.031002 -0.015101
v -0.014338 0.031012 -0.017850
v -0.009140 0.023002 -0.015592
v 0.023935 0.031005 0.013875
v -0.012072 0.026003 -0.026224
v -0.008899 0.031005 -0.028376
v -0.025290 0.025998 0.004941
v 0.013021 0.026001 0.032116
v 0.018401 0.015018 0.037926
v 0.026518 0.026152 0.025017
v 0.012019 0.025998 0.030894
v 0.030704 0.023000 0.002829
v 0.033314 0.031005 0.002369
v 0.027483 0.010000 0.021446
v 0.028356 -0.000000 0.020573
v 0.034990 0.010001 0.028072
v 0.045166 0.010000 0.010978
v 0.020917 0.031000 0.017890
v 0.020847 0.023018 0.017068
v -0.008804 0.023000 0.015018
v -0.009217 0.030999 0.019991
v -0.010863 0.030996 0.014062
v 0.003123 0.030979 0.025667
v 0.005591 0.023000 0.021381
v 0.007226 0.030969 0.021334
v 0.004562 0.022979 0.027026
v 0.008827 0.031006 0.026605
v -0.001539 -0.000000 0.028656
v -0.009697 0.009997 0.036355
v 0.005159 0.009998 0.039709
v 0.009841 0.030997 -0.026095
v 0.005056 0.022965 -0.028436
v 0.009493 0.022964 -0.024109
v 0.005175 0.010001 -0.040800
v 0.022595 0.009997 -0.037278
v 0.014437 -0.000000 -0.029579
v 0.027483 -0.000000 -0.022368
v 0.028356 0.010000 -0.021495
v 0.003608 0.031012 -0.027227
v 0.021893 0.031012 -0.020471
v 0.028295 0.031008 -0.000162
v 0.029105 0.022993 -0.002994
v 0.032000 0.031001 -0.003847
v 0.034613 0.022976 -0.000742
v 0.008765 0.024999 0.015297
v 0.004075 0.031002 0.015307
v -0.009498 0.025001 -0.002682
v 0.022334 0.024998 -0.000388
v 0.009995 0.025003 -0.016025
v 0.008779 0.030997 -0.016265
v 0.022738 0.031003 -0.001334
v 0.005587 0.031011 -0.022379
v 0.004398 0.023000 -0.022910
v -0.020126 0.022959 0.002278
v -0.021307 0.031000 0.001108
v -0.015619 0.030994 0.001019
v -0.021101 0.023000 -0.002512
v -0.019776 0.031007 -0.003403
v -0.015401 0.022988 -0.001301
v -0.023955 0.010000 0.026098
v -0.014585 -0.000000 0.021446
v -0.015458 0.010000 0.020573
v 0.020037 0.009998 0.037363
v 0.013508 -0.000000 0.029077
v 0.014437 0.010000 0.028656
v -0.000610 0.010000 0.029077
v -0.032989 0.010000 0.008167
v -0.023089 -0.000000 0.006598
v -0.022669 0.010000 0.007527
v -0.023089 0.010000 -0.007520
v -0.022669 -0.000000 -0.008449
v 0.045887 0.010000 -0.009090
v 0.036853 0.010000 -0.027021
v 0.035987 0.010000 0.006598
v 0.035987 -0.000000 -0.007520
v 0.035567 -0.000000 0.007527
v -0.015458 -0.000000 -0.021495
v -0.000610 -0.000000 -0.030000
v 0.035567 0.010000 -0.008449
v -0.032268 0.010000 -0.011901
v -0.014585 0.010000 -0.022368
v -0.021966 0.010000 -0.029139
v -0.008716 0.010000 -0.037552
v -0.001539 0.010000 -0.029579
v 0.013508 0.010000 -0.030000
v 0.009555 0.023000 0.025179
vn -0.8163 0.5513 0.1722
vn -0.8421 0.2289 0.4883
vn -0.6001 0.5962 0.5334
vn -0.9481 0.2535 -0.1918
vn -0.7937 0.5590 -0.2401
vn -0.8128 0.2092 -0.5436
vn -0.5595 0.5595 -0.6115
vn -0.2056 0.6271 -0.7513
vn -0.4752 0.3224 -0.8187
vn 0.0651 0.8406 -0.5377
vn -0.1598 0.2534 -0.9541
vn 0.2557 0.1789 -0.9500
vn 0.4468 0.6035 -0.6604
vn 0.6153 0.2522 -0.7468
vn 0.6681 0.6196 -0.4120
vn 0.5330 0.8433 -0.0692
vn 0.8821 0.2537 -0.3969
vn 0.9769 0.1887 0.1004
vn 0.8333 0.5140 0.2034
vn 0.9142 0.1504 0.3763
vn 0.7638 0.4407 0.4716
vn 0.9963 -0.0674 -0.0527
vn 0.8555 0.2742 0.4393
vn 0.6255 0.2581 0.7363
vn 0.5524 0.3915 0.7359
vn 0.5487 0.1239 0.8268
vn -0.2646 0.5735 -0.7753
vn -0.4966 -0.7663 -0.4077
vn -0.4735 0.5752 0.6671
vn -0.1702 0.8472 0.5032
vn -0.4969 0.2979 0.8151
vn -0.0688 0.2357 0.9694
vn -0.8233 -0.0060 -0.5676
vn -0.9129 -0.0255 -0.4074
vn -0.9845 -0.0882 -0.1518
vn -0.1910 0.2465 -0.9501
vn -0.4749 0.0462 -0.8788
vn 0.1781 -0.1469 -0.9730
vn -0.8785 0.0971 -0.4677
vn 0.3259 -0.1467 -0.9339
vn -0.9539 -0.2175 0.2067
vn 0.6537 0.5978 -0.4640
vn 0.8709 0.1178 -0.4771
vn 0.9159 0.1364 -0.3775
vn -0.0415 0.6003 0.7987
vn 0.8160 -0.0219 -0.5777
vn 0.3808 0.6208 -0.6853
vn 0.6899 0.6567 -0.3048
vn 0.2366 -0.0447 -0.9706
vn -0.6159 -0.1908 -0.7644
vn -0.5214 0.5858 -0.6205
vn 0.3746 -0.1310 -0.9179
vn -0.7337 0.2252 0.6410
vn -0.5499 0.0227 0.8349
vn -0.9255 0.0279 0.3776
vn 0.8618 -0.1218 0.4923
vn 0.9902 0.0926 -0.1048
vn 0.7659 0.0692 0.6393
vn -0.5125 -0.0390 0.8578
vn 0.8329 0.5529 -0.0263
vn -0.4168 0.5722 0.7063
vn 0.5462 -0.0334 0.8370
vn 0.4376 -0.0342 0.8985
vn 0.7012 -0.6476 0.2983
vn -0.3369 -0.0397 -0.9407
vn 0.9995 -0.0321 -0.0016
vn -0.4727 0.5435 -0.6937
vn 0.1744 0.5616 0.8089
vn 0.2853 0.2849 0.9151
vn -0.9727 0.2256 0.0547
vn -0.0358 -0.0653 0.9972
vn 0.1405 0.7937 0.5919
vn 0.7374 -0.0254 0.6750
vn 0.9645 0.0185 0.2634
vn 0.9546 -0.0961 -0.2819
vn 0.8040 0.5905 0.0699
vn -0.6226 0.5633 0.5432
vn -0.2031 -0.2161 0.9550
vn 0.9394 -0.1087 -0.3250
vn 0.2651 0.5786 0.7713
vn -0.1587 -0.7669 0.6218
vn 0.1613 -0.1369 -0.9774
vn 0.7684 0.6047 -0.2095
vn -0.3337 0.1001 0.9373
vn -0.2660 0.0028 0.9640
vn -0.5374 -0.6546 0.5317
vn -0.1967 -0.6644 0.7210
vn -0.7411 0.0020 0.6714
vn -0.3453 0.0020 0.9385
vn 0.0101 -0.0078 0.9999
vn -0.5925 0.8024 0.0719
vn -0.4080 0.7885 -0.4601
vn -0.9635 -0.1086 0.2447
vn 0.2969 0.5717 0.7649
vn -0.7621 0.5952 -0.2549
vn -0.0334 0.0585 -0.9977
vn 0.4017 0.0503 -0.9144
vn 0.5098 -0.6538 -0.5591
vn 0.2660 0.0028 -0.9640
vn 0.7411 0.0020 -0.6714
vn 0.2532 -0.0147 -0.9673
vn 0.7733 -0.1612 0.6132
vn 0.3741 0.8673 -0.3282
vn 0.3431 0.7971 -0.4969
vn 0.6293 0.0381 -0.7762
vn 0.6725 -0.0859 0.7351
vn 0.2471 0.5789 -0.7770
vn 0.9840 -0.1383 -0.1127
vn -0.5933 -0.2209 -0.7740
vn 0.5168 0.6312 0.5784
vn 0.4107 0.0426 0.9108
vn -0.2354 0.7788 0.5814
vn -0.0042 1.0000 -0.0041
vn -0.9045 0.0219 -0.4260
vn -0.9517 -0.2319 0.2013
vn -0.0347 -0.6584 0.7519
vn -0.1276 -0.0223 -0.9916
vn 0.1594 -0.0176 -0.9871
vn -0.6347 -0.0158 -0.7726
vn -0.0007 1.0000 -0.0010
vn 0.0007 1.0000 -0.0024
vn 0.9933 -0.0456 0.1059
vn -0.9982 -0.0024 0.0606
vn -0.7883 -0.0295 -0.6145
vn -0.7480 0.6631 -0.0282
vn -0.6719 -0.0233 0.7403
vn -0.2180 0.0252 0.9756
vn -0.6220 0.6289 0.4664
vn -0.0994 0.0182 0.9949
vn 0.5490 0.5790 -0.6028
vn 0.2588 -0.1158 -0.9590
vn 0.8181 0.0429 -0.5734
vn 0.8072 -0.1263 -0.5765
vn -0.0156 -0.1463 -0.9891
vn 0.5693 0.5882 0.5744
vn 0.7183 -0.0524 0.6937
vn -0.7719 0.6089 0.1831
vn -0.3732 0.7900 -0.4864
vn -0.9801 -0.0690 0.1860
vn -0.7121 -0.2132 0.6689
vn 0.0000 1.0000 0.0003
vn 0.0000 1.0000 0.0001
vn -0.0001 1.0000 0.0001
vn 0.0001 1.0000 0.0001
vn 0.0001 1.0000 0.0000
vn -0.7077 0.0814 0.7019
vn 0.3919 -0.0010 0.9200
vn 0.6714 0.0020 0.7411
vn 0.2660 -0.0028 0.9640
vn 0.7411 -0.0020 0.6714
vn 0.2532 0.0147 0.9673
vn -0.9636 0.0334 0.2652
vn -0.9640 -0.0028 0.2660
vn -0.9673 0.0147 0.2532
vn -0.9640 0.0028 -0.2660
vn -0.9673 -0.0147 -0.2532
vn 0.9712 0.0866 -0.2221
vn 0.7482 0.0574 -0.6610
vn 0.7395 -0.6541 -0.1593
vn 0.9640 0.0028 0.2660
vn 0.9673 -0.0147 0.2532
vn 0.0000 -1.0000 -0.0000
vn 0.9673 0.0147 -0.2532
vn -0.9646 0.0197 -0.2630
vn -0.7411 -0.0020 -0.6714
vn -0.6714 0.0020 -0.7411
vn -0.7193 0.0645 -0.6917
vn -0.4020 0.0248 -0.9153
vn -0.2660 -0.0028 -0.9640
vn -0.2532 0.0147 -0.9673
vn -0.0031 1.0000 0.0032
vn -0.9713 0.0753 -0.2257
vn -0.8328 -0.5475 -0.0820
vn -0.3443 0.1342 -0.9292
vn 0.0000 -1.0000 -0.0001
vn -0.0001 -1.0000 0.0001
vn 0.0001 -1.0000 -0.0002
vn 0.0000 -1.0000 -0.0002
vn 0.0001 -1.0000 0.0000
vn 0.0001 -1.0000 0.0001
vn 0.0000 -1.0000 0.0001
vn -0.0057 1.0000 0.0021
vn 0.0034 1.0000 -0.0051
vn -0.0013 1.0000 -0.0061
vn 0.0011 1.0000 0.0003
vn 0.0064 1.0000 0.0042
vn 0.0029 1.0000 0.0049
vn -0.0004 1.0000 0.0002
vn 0.0002 1.0000 0.0001
vn 0.0003 1.0000 -0.0001
vn -0.0004 1.0000 0.0004
vn -0.0002 1.0000 0.0002
vn 0.0001 1.0000 0.0009
vn 0.0002 1.0000 0.0006
vn 0.0005 1.0000 0.0003
vn -0.0004 1.0000 0.0003
vn -0.0004 1.0000 0.0001
vn -0.0005 1.0000 0.0018
vn -0.0000 1.0000 -0.0008
vn -0.0001 1.0000 0.0003
vn 0.0013 1.0000 0.0010
vn -0.0001 1.0000 0.0004
vn -0.0001 1.0000 -0.0007
vn 0.0002 1.0000 -0.0000
vn 0.0003 1.0000 0.0010
vn 0.0082 0.9999 0.0078
vn -0.0008 1.0000 0.0001
vn 0.0002 1.0000 -0.0003
vn 0.0024 1.0000 -0.0003
vn 0.0000 1.0000 -0.0000
vn 0.0016 1.0000 -0.0017
vn 0.0010 1.0000 -0.0010
vn 0.0000 1.0000 0.0004
vn -0.0002 1.0000 -0.0000
vn -0.0002 1.0000 -0.0005
vn -0.0002 1.0000 -0.0002
vn 0.0005 1.0000 -0.0002
vn 0.0007 1.0000 -0.0003
vn -0.0004 1.0000 -0.0000
vn 0.0005 1.0000 0.0001
vn 0.0005 1.0000 0.0005
vn 0.0002 1.0000 -0.0002
vn 0.0005 1.0000 0.0006
vn -0.0028 -1.0000 0.0055
vn -0.0010 1.0000 -0.0002
vn -0.0007 1.0000 -0.0018
vn 0.0019 1.0000 -0.0035
vn -0.0025 -1.0000 0.0078
vn 0.0004 1.0000 -0.0003
vn 0.0019 1.0000 -0.0006
vn -0.0014 1.0000 -0.0027
vn -0.0005 1.0000 0.0000
usemtl Material__1.008
s 1
f 3//1 1//2 2//3
f 5//4 3//1 6//5
f 7//6 6//5 8//7
f 10//8 9//9 8//7
f 12//10 11//11 10//8
f 13//12 12//10 14//13
f 15//14 14//13 16//15
f 18//16 17//17 16//15
f 19//18 18//16 20//19
f 21//20 24//21 22//22
f 23//23 20//19 24//21
f 24//21 25//24 23//23
f 24//21 21//20 75//25
f 26//26 75//25 21//20
f 27//27 28//28 29//29
f 32//30 34//31 33//32
f 34//31 32//30 2//3
f 35//33 36//34 37//35
f 10//36 71//37 38//38
f 43//39 44//40 40//41
f 44//40 43//39 45//42
f 16//43 46//44 22//22
f 40//41 39//45 43//39
f 50//46 49//47 51//48
f 53//49 86//50 54//51
f 86//50 53//49 55//52
f 2//53 52//54 56//55
f 55//56 53//57 57//58
f 62//59 63//60 64//61
f 60//62 65//63 61//64
f 66//65 63//60 67//66
f 63//60 66//65 68//67
f 2//3 1//2 34//31
f 73//68 74//69 75//25
f 25//24 75//25 74//69
f 75//25 25//24 24//21
f 74//69 73//68 33//32
f 17//17 18//16 19//18
f 15//14 16//15 17//17
f 14//13 15//14 13//12
f 20//19 23//23 19//18
f 3//1 5//4 4//70
f 9//9 10//8 11//11
f 7//6 8//7 9//9
f 6//5 7//6 5//4
f 1//2 3//1 4//70
f 30//71 76//72 26//26
f 22//22 24//21 20//19
f 23//23 81//73 82//74
f 25//24 81//73 23//23
f 27//27 83//75 28//28
f 84//76 83//75 27//27
f 85//77 86//50 87//78
f 54//51 86//50 85//77
f 88//79 89//80 90//81
f 92//82 91//83 88//79
f 76//72 30//71 31//84
f 131//85 126//86 93//87
f 127//88 126//86 131//85
f 33//32 94//89 95//90
f 34//31 94//89 33//32
f 56//55 72//91 2//53
f 37//35 72//91 56//55
f 37//35 36//34 72//91
f 35//33 70//92 36//34
f 71//37 70//92 35//33
f 71//37 10//36 70//92
f 96//93 97//94 98//95
f 99//96 13//12 100//97
f 102//98 150//99 103//100
f 101//101 150//99 102//98
f 97//94 96//93 104//102
f 38//38 14//103 10//36
f 38//38 42//104 14//103
f 41//105 42//104 38//38
f 105//106 39//45 40//41
f 77//107 106//108 78//109
f 106//108 77//107 107//110
f 16//43 22//22 20//19
f 108//111 107//110 109//112
f 109//112 107//110 77//107
f 107//110 108//111 106//108
f 45//42 39//45 105//106
f 43//113 39//45 45//42
f 41//105 16//43 42//104
f 46//44 16//43 41//105
f 109//114 78//109 108//115
f 78//109 109//114 77//107
f 84//76 69//116 83//75
f 29//29 69//116 84//76
f 110//117 111//118 48//119
f 49//47 111//118 110//117
f 49//47 50//46 111//118
f 85//77 87//78 57//58
f 57//58 87//78 55//56
f 88//79 91//83 89//80
f 52//54 31//84 30//71
f 52//54 2//53 31//84
f 54//51 57//120 53//121
f 85//77 57//120 54//51
f 112//122 61//64 50//46
f 116//123 47//124 48//119
f 116//123 113//125 47//124
f 59//126 114//127 58//128
f 115//129 114//127 59//126
f 44//40 45//42 105//106
f 58//128 116//123 59//126
f 113//125 116//123 58//128
f 115//129 60//62 114//127
f 65//63 60//62 115//129
f 60//62 61//64 112//122
f 63//60 62//59 67//66
f 64//61 63//60 68//67
f 62//59 68//67 66//65
f 62//59 64//61 68//67
f 118//130 98//95 97//94
f 117//131 98//95 118//130
f 98//95 117//131 96//93
f 119//132 120//133 121//134
f 122//135 120//133 119//132
f 122//135 123//136 120//133
f 124//137 123//136 122//135
f 124//137 122//135 119//138
f 124//137 121//139 123//140
f 121//139 124//137 119//138
f 50//46 51//48 112//122
f 114//141 113//125 58//128
f 60//142 113//125 114//141
f 112//143 113//125 60//142
f 112//143 47//144 113//125
f 110//145 47//144 112//143
f 49//47 110//145 112//143
f 51//48 49//47 112//143
f 48//119 47//124 110//117
f 69//116 29//29 28//28
f 104//102 118//130 97//94
f 117//131 118//130 104//102
f 125//146 34//31 1//2
f 34//31 125//146 94//89
f 27//27 29//29 84//76
f 128//147 25//24 74//69
f 81//73 25//24 128//147
f 79//148 129//149 80//150
f 130//151 129//149 79//148
f 131//85 129//149 130//151
f 74//69 95//90 128//147
f 33//32 95//90 74//69
f 131//85 93//87 129//149
f 125//146 1//2 132//152
f 127//88 133//153 126//86
f 134//154 133//153 127//88
f 4//70 132//152 1//2
f 135//155 133//153 134//154
f 135//155 136//156 133//153
f 137//157 19//18 82//74
f 137//157 17//17 19//18
f 138//158 17//17 137//157
f 138//158 15//14 17//17
f 100//97 15//14 138//158
f 100//97 13//12 15//14
f 140//159 139//160 141//161
f 133//162 93//87 126//86
f 136//162 93//87 133//162
f 136//162 129//162 93//87
f 80//162 129//162 136//162
f 141//162 80//162 136//162
f 142//162 141//162 136//162
f 143//162 141//162 142//162
f 101//162 141//162 143//162
f 102//98 141//162 101//162
f 102//98 140//159 141//162
f 103//100 140//159 102//98
f 144//163 140//159 103//100
f 140//159 144//163 139//160
f 23//23 82//74 19//18
f 139//160 80//150 141//161
f 79//148 80//150 139//160
f 145//164 4//70 5//4
f 132//152 4//70 145//164
f 7//6 145//164 5//4
f 135//155 142//165 136//156
f 146//166 142//165 135//155
f 145//164 7//6 147//167
f 148//168 11//11 99//96
f 148//168 9//9 11//11
f 147//167 9//9 148//168
f 9//9 147//167 7//6
f 146//166 143//169 142//165
f 149//170 143//169 146//166
f 99//96 11//11 13//12
f 150//99 143//169 149//170
f 150//99 101//101 143//169
f 26//26 76//72 75//25
f 151//171 89//80 91//83
f 151//172 90//81 89//80
f 151//172 92//173 90//81
f 92//173 151//172 91//174
f 13//12 11//11 12//10
f 73//68 32//30 33//32
f 149//175 99//175 150//176
f 149//175 148//162 99//175
f 146//162 148//162 149//175
f 146//162 147//162 148//162
f 145//162 147//162 146//162
f 135//162 145//162 146//162
f 132//162 145//162 135//162
f 134//162 132//162 135//162
f 125//175 132//162 134//162
f 127//175 125//175 134//162
f 94//177 125//175 127//175
f 131//177 94//177 127//175
f 95//178 94//177 131//177
f 130//175 95//178 131//177
f 128//175 95//178 130//175
f 79//179 128//175 130//175
f 81//180 128//175 79//179
f 82//162 81//180 79//179
f 139//162 82//162 79//179
f 137//162 82//162 139//162
f 144//162 137//162 139//162
f 138//181 137//162 144//162
f 103//181 138//181 144//162
f 100//176 138//181 103//181
f 150//176 100//176 103//181
f 99//175 100//176 150//176
f 32//30 73//182 76//72
f 31//183 32//30 76//72
f 2//3 32//30 31//183
f 3//184 2//53 72//91
f 6//185 3//184 72//91
f 36//186 6//185 72//91
f 8//187 6//185 36//186
f 70//92 8//187 36//186
f 70//92 10//36 8//187
f 14//13 12//10 10//8
f 42//104 16//43 14//103
f 20//19 18//16 16//15
f 73//182 75//25 76//72
f 50//188 121//189 56//190
f 87//191 50//188 56//190
f 56//190 55//145 87//191
f 52//192 55//145 56//190
f 66//193 121//189 50//188
f 66//193 123//194 121//189
f 120//195 56//190 121//189
f 37//196 56//190 120//195
f 123//194 37//196 120//195
f 35//197 37//196 123//194
f 66//193 35//197 123//194
f 66//193 67//198 35//197
f 50//46 61//64 66//199
f 65//200 66//199 61//64
f 62//201 66//199 65//200
f 71//202 62//201 65//200
f 104//203 71//202 65//200
f 38//204 71//202 104//203
f 96//205 38//204 104//203
f 117//206 104//203 65//200
f 96//205 117//206 65//200
f 105//191 38//204 96//205
f 44//207 105//191 96//205
f 59//208 44//207 96//205
f 116//209 44//207 59//208
f 115//210 59//208 96//205
f 65//200 115//210 96//205
f 41//211 38//204 105//191
f 40//212 41//211 105//191
f 69//213 40//212 44//207
f 69//213 116//209 48//214
f 44//207 116//209 69//213
f 48//214 83//120 69//213
f 92//215 83//120 48//214
f 111//216 92//215 48//214
f 46//217 41//211 40//212
f 108//218 46//217 40//212
f 106//219 108//218 40//212
f 69//213 106//219 40//212
f 78//220 106//219 69//213
f 21//221 78//220 69//213
f 22//222 78//220 21//221
f 108//218 78//220 22//222
f 46//217 108//218 22//222
f 67//198 62//201 71//202
f 35//197 67//198 71//202
f 26//223 21//221 69//213
f 92//224 69//116 28//28
f 26//223 69//213 92//225
f 30//226 26//223 92//225
f 88//227 30//226 92//225
f 86//228 90//81 92//173
f 86//229 88//227 90//230
f 86//229 30//226 88//227
f 52//192 30//226 86//229
f 86//229 55//145 52//192
f 28//231 83//120 92//215
f 111//216 86//232 92//215
f 50//188 86//232 111//216
f 87//191 86//232 50//188
