# Blender v2.79 (sub 0) OBJ File: 'KUKA.blend'
# www.blender.org
mtllib link3.mtl
o link3_object.004
v -0.057016 0.234342 -0.007500
v -0.062099 0.209340 0.009500
v -0.026497 0.267168 0.009500
v -0.020300 0.263014 -0.007502
v 0.024909 0.261402 -0.007502
v 0.040426 0.255644 0.009500
v 0.053549 0.236468 -0.007501
v 0.061222 0.210821 0.009500
v 0.060850 0.201373 -0.007500
v 0.045758 0.167168 0.009500
v 0.035471 0.164252 -0.007504
v 0.000748 0.146842 0.009500
v -0.011962 0.147555 -0.007500
v -0.042225 0.164107 0.009500
v -0.054068 0.178858 -0.007500
v 0.060999 0.077280 -0.001254
v 0.058932 0.076065 -0.001361
v 0.060997 0.074714 -0.002041
v -0.029264 0.251560 0.009500
v 0.035108 0.250771 0.009500
v 0.036833 0.245296 -0.007500
v 0.047689 0.187605 0.009500
v 0.001916 0.155446 0.009500
v -0.011610 0.157743 -0.007500
v -0.052455 0.194510 0.009500
v -0.051763 0.196719 -0.007500
v 0.058335 0.029299 -0.007043
v 0.060999 0.026934 -0.007802
v 0.060665 0.031934 -0.006152
v 0.059499 0.037000 -0.013300
v 0.059874 0.037000 0.011700
v 0.060786 0.030280 0.006942
v 0.059499 0.023000 -0.013300
v 0.059199 0.023000 0.011700
v 0.057999 0.033802 -0.007802
v 0.057998 0.029571 0.007190
v -0.058335 0.076700 -0.007043
v -0.060999 0.079066 -0.007802
v -0.060665 0.074065 -0.006152
v -0.059499 0.068999 -0.013300
v -0.059874 0.068999 0.011700
v -0.060786 0.075719 0.006942
v -0.059499 0.082999 -0.013300
v -0.059199 0.082999 0.011700
v -0.057999 0.072197 -0.007802
v -0.057998 0.076429 0.007190
v -0.057999 0.057600 -0.007799
v -0.060993 0.060130 0.008002
v -0.058000 0.061925 0.007909
v -0.060999 0.059366 -0.007800
v -0.060999 0.064666 -0.007800
v -0.058455 0.061859 -0.000062
v -0.059666 0.053666 -0.013300
v -0.059332 0.067666 -0.013300
v -0.059499 0.060666 0.011700
v 0.057999 0.049332 -0.007800
v 0.060993 0.045868 0.008002
v 0.058000 0.044074 0.007909
v 0.059943 0.045538 0.000256
v 0.061000 0.042266 -0.007800
v 0.057999 0.044032 -0.007800
v 0.059666 0.052332 -0.013300
v 0.059332 0.038332 -0.013300
v 0.059499 0.045332 0.011700
v 0.060621 0.059965 0.006943
v 0.057999 0.057600 0.007702
v 0.061000 0.060237 -0.007290
v 0.058185 0.060946 -0.007042
v 0.058333 0.062600 0.006052
v 0.060999 0.064468 0.007702
v 0.059874 0.067666 0.011700
v 0.059199 0.053666 0.011700
v 0.059499 0.060666 -0.013300
v -0.060621 0.046033 0.006943
v -0.057999 0.048399 0.007702
v -0.061000 0.045762 -0.007290
v -0.058185 0.045052 -0.007042
v -0.058333 0.043398 0.006052
v -0.060999 0.041530 0.007702
v -0.059874 0.038332 0.011700
v -0.059199 0.052332 0.011700
v -0.059499 0.045332 -0.013300
v 0.060905 0.075057 -0.008291
v 0.057998 0.072933 0.007699
v 0.060999 0.074699 0.007700
v 0.058093 0.076941 -0.008291
v 0.059124 0.068999 0.011700
v 0.059499 0.075999 -0.013300
v 0.060998 0.081001 0.010367
v 0.058749 0.076710 0.003567
v 0.057999 0.082999 0.011700
v -0.060905 0.030942 -0.008291
v -0.057998 0.033067 0.007699
v -0.060999 0.031300 0.007700
v -0.058093 0.029058 -0.008291
v -0.059124 0.037000 0.011700
v -0.059499 0.030000 -0.013300
v -0.060998 0.024998 0.010367
v -0.058749 0.029289 0.003567
v -0.057999 0.023000 0.011700
v -0.060999 0.028719 -0.001254
v -0.058932 0.029934 -0.001361
v -0.060997 0.031285 -0.002041
v 0.049466 0.236836 -0.052592
v -0.011712 0.238349 -0.090329
v 0.029364 0.258351 -0.062690
v 0.031515 0.216785 -0.087854
v -0.040088 0.247914 -0.060397
v -0.054619 0.217564 -0.062087
v 0.058367 0.186836 -0.059679
v -0.010967 0.268070 -0.057269
v -0.024036 0.265521 -0.007514
v 0.057472 0.233536 -0.007449
v 0.055819 0.187491 -0.009102
v -0.061761 0.223227 -0.007647
v 0.020898 0.265502 -0.007504
v -0.026868 0.151397 -0.010160
v -0.049658 0.167665 -0.017864
v -0.059941 0.151998 -0.033903
v -0.057448 0.167611 -0.058240
v -0.033584 0.173841 -0.083398
v -0.015379 0.093647 -0.062773
v -0.024384 0.046196 0.055631
v 0.016035 0.016999 0.060461
v 0.016007 0.053014 0.058287
v -0.059536 0.016999 0.009468
v -0.060773 0.082337 -0.008672
v -0.046060 0.121211 -0.003557
v 0.045258 0.147345 -0.015270
v -0.052762 0.074687 0.026461
v 0.061391 0.099410 -0.009592
v 0.058665 0.016999 -0.010130
v 0.048567 0.124035 -0.005342
v 0.044049 0.074539 0.037478
v -0.044562 0.071780 -0.043931
v 0.060002 0.159013 -0.037241
v 0.050247 0.086343 -0.036831
v -0.016862 0.083280 0.044161
v 0.055002 0.017117 0.027573
v -0.039006 0.017007 0.044731
v 0.028235 0.017000 -0.056476
v 0.021520 0.064102 -0.058173
v 0.026741 0.152186 -0.009453
v -0.039076 0.017000 -0.049579
v 0.026819 0.121133 -0.067787
v 0.038542 0.170893 -0.080532
v -0.008099 0.185325 -0.094286
v -0.008199 0.000000 0.054335
v -0.054335 0.000000 -0.008199
v 0.054335 0.000000 0.008199
v 0.024153 0.017000 0.045629
v -0.024153 0.017000 -0.045629
v 0.037369 0.017000 -0.040288
v 0.008199 0.000000 -0.054335
v -0.045629 0.017000 0.024153
vn -0.7625 0.3900 -0.5162
vn -0.9960 0.0057 -0.0886
vn -0.3772 0.9082 -0.1813
vn 0.6106 0.7872 -0.0866
vn 0.1167 0.4604 -0.8800
vn -0.0099 0.3598 -0.9330
vn 0.9976 0.0608 0.0334
vn 0.8825 0.4581 -0.1064
vn 0.7639 -0.1484 -0.6280
vn 0.7125 -0.6679 -0.2152
vn 0.5301 -0.7831 -0.3251
vn 0.1298 -0.9861 -0.1040
vn -0.2021 -0.9794 0.0009
vn -0.6613 -0.7471 -0.0668
vn -0.8864 -0.4609 0.0436
vn 0.6767 0.3096 0.6679
vn 0.9315 0.3638 -0.0027
vn 0.7036 0.3267 0.6310
vn 0.9677 0.2500 0.0332
vn 0.9914 0.1181 0.0568
vn 0.7526 -0.6567 -0.0494
vn -0.5131 -0.6353 -0.5772
vn -0.5847 -0.7543 -0.2988
vn -0.8086 -0.3209 -0.4932
vn -0.9500 0.3122 0.0058
vn -0.5835 0.7253 -0.3654
vn 0.2135 0.4942 -0.8427
vn 0.0197 0.9949 -0.0986
vn 0.8514 -0.3763 0.3655
vn -0.8921 0.1122 0.4377
vn 0.9992 -0.0135 0.0384
vn 0.0154 0.6648 -0.7469
vn 0.0513 0.7143 0.6979
vn 0.9989 -0.0460 0.0074
vn -0.0305 -0.6862 -0.7267
vn -0.0277 -0.7262 0.6869
vn 0.1957 0.4408 -0.8760
vn -0.9994 0.0273 -0.0224
vn -0.9939 -0.0213 0.1080
vn -0.8524 0.3726 0.3668
vn 0.8921 -0.1122 0.4377
vn -0.9992 0.0135 0.0384
vn -0.0154 -0.6648 -0.7469
vn -0.0513 -0.7143 0.6979
vn -0.9989 0.0460 0.0074
vn 0.0305 0.6862 -0.7267
vn 0.0277 0.7263 0.6869
vn -0.1957 -0.4408 -0.8760
vn 0.9994 -0.0273 -0.0224
vn 0.9939 0.0213 0.1080
vn 0.9791 -0.1923 0.0665
vn 0.0695 0.3149 -0.9466
vn -0.2059 -0.2601 -0.9434
vn -0.7503 0.1542 0.6428
vn -0.1919 -0.9725 -0.1317
vn -0.8059 -0.5898 0.0509
vn 0.9964 -0.0509 0.0678
vn -0.9500 0.0000 0.3123
vn 0.0489 0.7359 -0.6753
vn -0.0290 -0.7425 -0.6692
vn -0.9852 -0.1131 -0.1291
vn -0.8734 0.4869 0.0009
vn -0.9012 -0.2309 0.3667
vn 0.0061 -0.0261 0.9996
vn 0.7638 0.4921 0.4176
vn -0.4454 -0.8886 -0.1100
vn -0.3024 -0.1115 -0.9466
vn 0.0929 0.3623 -0.9274
vn -0.9698 -0.2000 0.1399
vn -0.8651 0.0971 0.4922
vn 0.9625 -0.2714 -0.0055
vn -0.9721 0.0000 0.2346
vn 0.9861 -0.1588 0.0498
vn 0.0565 0.7522 -0.6565
vn -0.0289 -0.7359 -0.6765
vn 0.9212 0.1849 0.3423
vn -0.0061 0.0261 0.9996
vn -0.9850 -0.1066 -0.1360
vn -0.8432 0.5363 0.0370
vn -0.7420 -0.5167 0.4271
vn -0.1972 0.4356 0.8783
vn -0.9965 0.0639 0.0540
vn 0.9027 0.0805 -0.4227
vn -0.9929 0.0884 -0.0798
vn -0.8856 -0.3332 -0.3237
vn 0.9992 0.0404 -0.0048
vn 0.0177 0.7328 0.6803
vn -0.0146 -0.7419 0.6703
vn -0.0134 0.0057 -0.9999
vn 0.9588 -0.1894 -0.2115
vn 0.1972 -0.4356 0.8783
vn 0.9965 -0.0639 0.0540
vn -0.9027 -0.0805 -0.4227
vn 0.9929 -0.0884 -0.0798
vn 0.8865 0.3293 -0.3250
vn -0.9992 -0.0404 -0.0048
vn -0.0177 -0.7328 0.6803
vn 0.0146 0.7419 0.6703
vn 0.0134 -0.0057 -0.9999
vn -0.9588 0.1894 -0.2115
vn 0.9367 -0.3327 -0.1090
vn -0.7420 0.5571 0.3728
vn 0.9863 -0.0585 -0.1542
vn 0.2304 -0.2477 0.9410
vn 0.8314 -0.5555 0.0130
vn 0.9193 -0.3891 -0.0584
vn -0.9446 -0.2604 -0.1995
vn 0.7615 0.0462 0.6465
vn -0.0598 -0.7942 0.6047
vn -0.6987 0.6843 -0.2088
vn -0.9099 0.3009 -0.2854
vn 0.0006 -0.0023 -1.0000
vn 0.4247 0.0341 0.9047
vn 0.4754 0.8542 -0.2106
vn -0.9367 0.3327 -0.1089
vn 0.7420 -0.5571 0.3728
vn -0.9863 0.0585 -0.1542
vn -0.2304 0.2477 0.9410
vn -0.8314 0.5555 0.0130
vn -0.9193 0.3891 -0.0584
vn 0.9446 0.2604 -0.1995
vn -0.7615 -0.0462 0.6465
vn 0.0598 0.7942 0.6047
vn 0.6987 -0.6843 -0.2088
vn 0.9099 -0.3009 -0.2854
vn -0.0006 0.0023 -1.0000
vn -0.4247 -0.0341 0.9047
vn -0.4754 -0.8542 -0.2106
vn -0.6973 0.7167 -0.0060
vn -0.4603 0.8877 -0.0081
vn -0.6156 0.7880 0.0120
vn 0.0000 -0.0000 1.0000
vn 0.0001 -0.0000 1.0000
vn 0.0000 0.0000 -1.0000
vn -0.1892 0.4113 -0.8916
vn 0.4833 0.7642 -0.4271
vn 0.4872 0.1881 -0.8528
vn 0.8563 0.4193 -0.3017
vn -0.0816 -0.1187 -0.9896
vn -0.7599 0.2184 0.6123
vn -0.3292 0.7036 0.6297
vn -0.6797 0.6162 -0.3980
vn 0.7188 0.3285 0.6127
vn 0.9185 0.0151 -0.3952
vn -0.8781 -0.1070 -0.4663
vn -0.8535 0.2178 -0.4734
vn -0.6036 -0.1269 0.7871
vn -0.0520 0.0829 0.9952
vn -0.1565 0.9250 -0.3462
vn -0.4881 -0.6385 -0.5951
vn -0.2308 -0.1808 -0.9561
vn 0.4364 -0.0890 -0.8953
vn -0.3672 0.1035 0.9244
vn -0.6415 -0.1592 0.7505
vn 0.1974 -0.6147 0.7636
vn 0.4934 0.0980 0.8643
vn -0.3188 0.4972 0.8069
vn 0.4775 0.4546 0.7519
vn -0.9889 0.0252 0.1467
vn -0.7740 0.2388 0.5864
vn 0.9885 0.1042 0.1099
vn 0.5998 0.3385 0.7250
vn -0.9986 -0.0151 -0.0506
vn -0.9838 -0.1376 0.1147
vn 0.8287 -0.1161 -0.5476
vn 0.9542 -0.2067 -0.2163
vn -0.1621 0.5426 0.8242
vn 0.2329 0.2332 0.9441
vn 0.6885 -0.6270 0.3645
vn 0.3401 -0.0544 -0.9388
vn 0.3422 -0.2908 -0.8935
vn -0.0140 -0.4609 0.8873
vn -0.7630 -0.0851 -0.6408
vn -0.5179 -0.1417 -0.8436
vn 0.5155 -0.1847 -0.8368
vn 0.9922 -0.0201 0.1227
vn 0.6749 -0.0668 0.7349
vn 0.2734 0.7146 0.6439
vn -0.0562 -0.5182 0.8534
vn 0.4888 -0.3399 0.8034
vn -0.5030 -0.7810 0.3701
vn -0.4798 -0.3244 -0.8152
vn -0.7551 -0.6055 -0.2513
vn -0.7529 -0.6105 0.2458
vn -0.3830 -0.8878 0.2553
vn 0.7716 -0.5926 0.2313
vn 0.8461 -0.4862 -0.2186
vn 0.0868 0.1351 -0.9870
vn 0.2564 -0.9260 -0.2771
vn 0.0000 -1.0000 -0.0000
vn 0.0041 -1.0000 0.0022
usemtl Material__1.004
s 1
f 1//1 2//2 3//3
f 6//4 5//5 3//3
f 4//6 3//3 5//5
f 8//7 7//8 6//4
f 9//9 8//7 10//10
f 7//8 8//7 9//9
f 10//10 11//11 9//9
f 11//11 10//10 12//12
f 11//11 12//12 13//13
f 14//14 13//13 12//12
f 15//15 14//14 2//2
f 14//14 15//15 13//13
f 15//15 2//2 1//1
f 6//4 7//8 5//5
f 3//3 4//6 1//1
f 16//16 17//17 18//18
f 17//17 16//16 18//18
f 4//6 25//19 26//20
f 4//6 19//21 25//19
f 21//22 20//23 5//5
f 19//21 5//5 20//23
f 19//21 4//6 5//5
f 7//24 22//25 20//23
f 20//23 21//22 7//24
f 11//26 22//25 7//24
f 24//27 23//28 11//26
f 22//25 11//26 23//28
f 26//20 25//19 24//27
f 23//28 24//27 25//19
f 29//29 27//30 28//31
f 30//32 29//29 28//31
f 31//33 29//29 30//32
f 32//34 29//29 31//33
f 28//31 33//35 30//32
f 28//31 34//36 33//35
f 32//34 34//36 28//31
f 31//33 34//36 32//34
f 36//37 29//29 32//34
f 35//38 27//30 29//29
f 36//37 28//31 27//30
f 32//34 28//31 36//37
f 36//39 35//38 29//29
f 31//33 35//38 36//39
f 34//36 31//33 36//39
f 27//30 34//36 36//39
f 27//30 33//35 34//36
f 27//30 30//32 33//35
f 35//38 30//32 27//30
f 31//33 30//32 35//38
f 39//40 37//41 38//42
f 40//43 39//40 38//42
f 41//44 39//40 40//43
f 42//45 39//40 41//44
f 38//42 43//46 40//43
f 38//42 44//47 43//46
f 42//45 44//47 38//42
f 41//44 44//47 42//45
f 46//48 39//40 42//45
f 45//49 37//41 39//40
f 46//48 38//42 37//41
f 42//45 38//42 46//48
f 46//50 45//49 39//40
f 41//44 45//49 46//50
f 44//47 41//44 46//50
f 37//41 44//47 46//50
f 37//41 43//46 44//47
f 37//41 40//43 43//46
f 45//49 40//43 37//41
f 41//44 40//43 45//49
f 47//51 48//52 49//53
f 50//54 48//52 47//51
f 51//55 49//53 48//52
f 52//56 49//53 51//55
f 50//54 52//57 51//58
f 52//57 50//54 47//51
f 54//59 53//60 50//61
f 51//62 54//59 50//61
f 48//63 54//59 51//62
f 48//63 55//64 54//59
f 48//63 53//60 55//64
f 50//61 53//60 48//63
f 54//59 52//57 47//51
f 53//60 54//59 47//51
f 49//65 53//60 47//51
f 49//65 55//64 53//60
f 49//65 54//59 55//64
f 52//57 54//59 49//65
f 56//66 57//67 58//68
f 59//69 57//67 56//66
f 61//70 59//71 56//72
f 60//73 58//68 57//67
f 61//70 58//68 60//73
f 59//71 61//70 60//73
f 62//74 59//71 60//73
f 63//75 62//74 60//73
f 57//76 63//75 60//73
f 57//76 64//77 63//75
f 57//76 62//74 64//77
f 59//71 62//74 57//76
f 62//74 63//75 61//78
f 56//79 62//74 61//78
f 58//80 62//74 56//79
f 58//80 64//77 62//74
f 58//80 63//75 64//77
f 61//78 63//75 58//80
f 67//81 66//82 65//83
f 68//84 66//82 67//81
f 69//85 68//84 67//81
f 65//83 69//85 70//86
f 71//87 68//84 69//85
f 72//88 71//87 69//85
f 66//82 72//88 69//85
f 65//83 66//82 69//85
f 68//84 72//88 66//82
f 68//84 73//89 72//88
f 71//87 73//89 68//84
f 67//90 70//86 69//85
f 71//87 70//86 67//90
f 73//89 71//87 67//90
f 67//90 72//88 73//89
f 65//83 72//88 67//90
f 71//87 72//88 65//83
f 70//86 71//87 65//83
f 76//91 75//92 74//93
f 77//94 75//92 76//91
f 78//95 77//94 76//91
f 74//93 78//95 79//96
f 80//97 77//94 78//95
f 81//98 80//97 78//95
f 75//92 81//98 78//95
f 74//93 75//92 78//95
f 77//94 81//98 75//92
f 77//94 82//99 81//98
f 80//97 82//99 77//94
f 76//100 79//96 78//95
f 80//97 79//96 76//100
f 82//99 80//97 76//100
f 76//100 81//98 82//99
f 74//93 81//98 76//100
f 80//97 81//98 74//93
f 79//96 80//97 74//93
f 83//101 84//102 85//103
f 86//104 84//102 83//101
f 89//105 86//104 83//101
f 90//106 86//104 89//105
f 85//103 90//107 89//108
f 87//109 90//107 84//102
f 91//110 90//107 87//109
f 86//111 90//107 91//110
f 88//112 86//111 91//110
f 87//109 86//111 88//112
f 84//102 86//111 87//109
f 90//107 85//103 84//102
f 91//113 87//109 89//108
f 88//112 91//110 89//114
f 92//115 93//116 94//117
f 95//118 93//116 92//115
f 98//119 95//118 92//115
f 99//120 95//118 98//119
f 94//117 99//121 98//122
f 96//123 99//121 93//116
f 100//124 99//121 96//123
f 95//125 99//121 100//124
f 97//126 95//125 100//124
f 96//123 95//125 97//126
f 93//116 95//125 96//123
f 99//121 94//117 93//116
f 100//127 96//123 98//122
f 97//126 100//124 98//128
f 101//129 102//130 103//131
f 102//130 101//129 103//131
f 96//123 94//117 98//122
f 92//115 94//117 96//123
f 97//126 92//115 96//123
f 98//119 92//115 97//126
f 87//109 85//103 89//108
f 83//101 85//103 87//109
f 88//112 83//101 87//109
f 89//105 83//101 88//112
f 3//132 2//132 25//132
f 19//133 3//132 25//132
f 20//132 3//132 19//133
f 6//132 3//132 20//132
f 8//132 6//132 20//132
f 22//132 8//132 20//132
f 10//132 8//132 22//132
f 23//132 10//132 22//132
f 12//132 10//132 23//132
f 23//132 14//132 12//132
f 25//132 14//132 23//132
f 2//132 14//132 25//132
f 15//134 1//1 26//134
f 24//27 15//134 26//134
f 13//134 15//134 24//27
f 11//26 13//134 24//27
f 7//8 9//9 11//11
f 5//5 7//24 21//22
f 26//134 1//1 4//6
f 105//135 106//136 107//137
f 104//138 107//137 106//136
f 107//137 147//139 105//135
f 115//140 112//141 108//142
f 104//138 106//136 113//143
f 113//143 110//144 104//138
f 110//144 107//137 104//138
f 120//145 115//140 109//146
f 115//140 118//147 117//148
f 111//149 108//142 112//141
f 111//149 105//135 108//142
f 144//150 122//151 141//152
f 123//153 140//154 124//155
f 129//156 128//157 133//158
f 128//157 119//159 130//160
f 131//161 133//158 134//162
f 127//163 144//150 126//164
f 117//148 128//157 129//156
f 141//152 137//165 132//166
f 128//157 138//167 133//158
f 138//167 134//162 133//158
f 130//160 138//167 128//157
f 126//164 130//160 127//163
f 138//167 130//160 123//153
f 138//167 125//168 134//162
f 140//154 130//160 126//164
f 134//162 124//155 139//169
f 142//170 145//171 137//165
f 143//172 117//148 129//156
f 128//157 117//148 118//147
f 127//163 119//159 120//145
f 144//150 135//173 122//151
f 121//174 122//151 120//145
f 120//145 122//151 135//173
f 118//147 119//159 128//157
f 110//144 137//165 146//175
f 129//156 133//158 136//176
f 145//171 146//175 137//165
f 129//156 136//176 114//177
f 109//146 121//174 120//145
f 119//159 118//147 115//140
f 113//143 114//177 136//176
f 147//139 107//137 146//175
f 105//135 147//139 121//174
f 110//144 113//143 136//176
f 109//146 105//135 121//174
f 116//178 113//143 106//136
f 110//144 146//175 107//137
f 122//151 147//139 145//171
f 122//151 121//174 147//139
f 146//175 145//171 147//139
f 115//140 120//145 119//159
f 112//141 116//178 111//149
f 106//136 105//135 111//149
f 116//178 106//136 111//149
f 122//151 145//171 142//170
f 143//172 129//156 114//177
f 141//152 122//151 142//170
f 135//173 127//163 120//145
f 136//176 131//161 110//144
f 131//161 137//165 110//144
f 141//152 142//170 137//165
f 140//154 123//153 130//160
f 125//168 124//155 134//162
f 123//153 125//168 138//167
f 132//166 131//161 139//169
f 131//161 134//162 139//169
f 133//158 131//161 136//176
f 135//173 144//150 127//163
f 127//163 130//160 119//159
f 132//166 137//165 131//161
f 123//153 124//155 125//168
f 108//142 109//146 115//140
f 105//135 109//146 108//142
f 148//179 151//180 140//181
f 152//182 149//183 126//184
f 126//184 149//183 155//185
f 151//180 150//186 132//187
f 154//188 153//189 150//186
f 152//182 154//188 149//183
f 153//189 154//188 152//182
f 151//180 148//179 150//186
f 148//179 155//185 149//183
f 155//185 148//179 140//181
f 154//190 148//179 149//183
f 150//186 148//179 154//190
f 150//186 153//189 132//187
f 113//143 143//172 114//177
f 116//178 143//172 113//143
f 116//178 117//148 143//172
f 112//141 117//148 116//178
f 115//140 117//148 112//141
f 126//184 155//185 140//181
f 152//190 126//164 144//150
f 141//190 152//190 144//150
f 141//190 153//189 152//190
f 132//187 153//189 141//190
f 139//169 151//191 132//166
f 124//155 151//191 139//169
f 124//155 140//154 151//191
