# Blender v2.79 (sub 0) OBJ File: 'KUKA.blend'
# www.blender.org
mtllib link6.mtl
o link6_object.007
v 0.004487 0.112575 -0.049471
v -0.008216 0.120583 -0.040825
v 0.009846 0.127470 -0.030601
v -0.005966 0.135427 -0.003734
v 0.022019 0.131387 -0.008559
v -0.029760 0.082012 -0.060190
v -0.049428 0.067450 -0.051052
v -0.046956 0.081687 -0.048732
v -0.045214 0.041620 -0.054727
v -0.059243 0.052871 -0.040372
v -0.065666 0.031446 -0.020665
v -0.058197 0.031884 -0.037119
v -0.052710 0.010061 -0.030496
v -0.060187 0.010021 -0.008180
v -0.024130 0.057881 -0.067886
v -0.007086 0.083141 -0.066751
v -0.013896 0.100638 -0.056719
v 0.003228 0.093126 -0.062801
v -0.058296 0.010011 0.015288
v -0.024067 0.113851 -0.042648
v -0.013847 0.129787 -0.023302
v -0.032984 0.100276 -0.048482
v -0.034176 0.118940 -0.026731
v -0.044506 0.116968 -0.010163
v -0.029586 0.128479 -0.007250
v -0.057484 0.098681 -0.015930
v -0.058793 0.100362 0.001328
v -0.066548 0.077471 0.016592
v -0.061463 0.056882 0.036654
v -0.042449 0.042725 0.056948
v -0.054348 0.032569 0.042976
v -0.037192 0.010166 0.048096
v -0.069135 0.061520 0.017338
v -0.022977 0.010216 0.056861
v -0.049172 0.010113 0.035439
v -0.012325 0.010049 -0.059503
v -0.027422 0.027322 -0.062117
v 0.019505 0.047826 -0.068823
v 0.001050 0.053636 -0.072096
v 0.028105 0.084504 -0.059767
v 0.044232 0.076996 -0.052732
v 0.042098 0.098158 -0.042781
v 0.048430 0.107205 -0.024137
v 0.034317 0.125770 0.003762
v 0.042950 0.118166 -0.010529
v 0.057033 0.100940 -0.011940
v 0.059852 0.083813 -0.029375
v 0.059048 0.061410 -0.040494
v 0.046016 0.054174 -0.054932
v 0.035974 0.047976 -0.062151
v 0.015811 0.010073 -0.058830
v 0.001938 0.027271 -0.067939
v 0.029493 0.024882 -0.060393
v 0.038492 0.029228 0.056905
v 0.025593 0.010137 0.056314
v 0.053000 0.023569 0.040219
v 0.049188 0.043567 0.051172
v 0.055063 0.010191 0.026822
v 0.040696 0.072181 0.056831
v 0.066618 0.024663 0.006905
v 0.059382 0.041964 0.038555
v 0.055005 0.063576 0.045219
v 0.036142 0.096116 0.049106
v 0.028755 0.090582 0.056953
v 0.016478 0.113438 0.046237
v 0.000032 0.122400 0.039475
v -0.003929 0.103696 0.056780
v -0.006341 0.132122 0.020679
v -0.021434 0.117340 0.040033
v -0.020241 0.097802 0.056707
v -0.024959 0.128419 0.015772
v -0.037625 0.079089 0.056925
v -0.041709 0.094606 0.046105
v -0.039517 0.118581 0.020500
v -0.055458 0.079277 0.039190
v -0.056666 0.097664 0.021121
v -0.051766 0.056176 0.049376
v 0.028784 0.117430 0.034826
v 0.010776 0.132210 0.019451
v 0.047693 0.105553 0.028932
v 0.030521 0.125441 0.017499
v 0.062015 0.088495 0.018005
v 0.066887 0.083284 -0.004249
v 0.068710 0.056444 -0.020709
v 0.071551 0.051987 0.002754
v 0.068512 0.034925 -0.014394
v 0.057249 0.036338 -0.040933
v 0.052674 0.010059 -0.030663
v 0.040148 0.010299 -0.046609
v 0.069420 0.068892 0.010519
v 0.062916 0.073027 0.029796
v 0.060849 0.010045 -0.005696
v 0.049502 0.088786 0.041011
v 0.067474 0.044124 0.023732
v 0.050649 0.109958 0.013317
v 0.028547 0.121197 -0.029603
v 0.025090 0.108140 -0.047664
v -0.040335 0.020847 -0.051814
v -0.063263 0.022589 0.020480
v -0.068172 0.042651 0.020007
v -0.070223 0.035680 -0.001816
v -0.064795 0.072263 -0.025446
v -0.068146 0.054379 -0.022804
v -0.070019 0.071711 -0.005351
v -0.058019 0.084167 -0.032351
v -0.045437 0.105098 -0.031683
v -0.032836 0.009957 -0.050552
v 0.016706 0.072540 -0.067805
v -0.017833 0.038800 -0.068146
v -0.038098 -0.000026 -0.032968
v -0.048660 0.009988 -0.014952
v -0.048630 -0.000010 -0.013174
v -0.032968 0.000030 0.038098
v -0.038098 0.010026 0.032960
v -0.014944 0.010039 0.048652
v -0.013174 0.000039 0.048630
v 0.013174 -0.000039 -0.048630
v 0.014944 0.009961 -0.048668
v -0.014944 -0.000039 -0.048660
v -0.013174 0.009961 -0.048638
v -0.019646 0.078217 0.056937
v -0.014415 0.081940 0.056934
v -0.024078 0.073567 0.056940
v -0.027289 0.068007 0.056945
v -0.029388 0.061938 0.056950
v -0.030000 0.055545 0.056955
v -0.029388 0.049154 0.056960
v -0.027289 0.043082 0.056965
v -0.024075 0.037519 0.056969
v -0.019646 0.032872 0.056973
v -0.014415 0.029149 0.056976
v -0.008452 0.026760 0.056978
v -0.002246 0.025546 0.056979
v 0.006145 0.026090 0.056978
v 0.014415 0.029149 0.056976
v 0.019646 0.032872 0.056973
v 0.024075 0.037519 0.056969
v 0.028176 0.045027 0.056964
v 0.029694 0.051275 0.056958
v 0.030002 0.057670 0.056953
v 0.028275 0.065830 0.056947
v 0.024077 0.073567 0.056941
v 0.019646 0.078217 0.056937
v 0.014415 0.081940 0.056934
v 0.008452 0.084329 0.056932
v 0.002148 0.085543 0.056931
v -0.006393 0.084933 0.056932
v 0.048630 0.009989 -0.013182
v 0.048660 -0.000011 -0.014944
v 0.014944 0.000039 0.048660
v 0.013174 0.010038 0.048622
v 0.032968 0.010030 0.038090
v 0.038098 0.000026 0.032968
v 0.048660 0.010012 0.014936
v 0.048630 0.000010 0.013174
v 0.038098 0.009974 -0.032976
v 0.032968 -0.000030 -0.038098
v -0.032968 0.009970 -0.038106
v -0.048660 0.000011 0.014944
v -0.048630 0.010011 0.013166
vn -0.1256 0.7763 -0.6177
vn 0.0713 0.6664 -0.7422
vn -0.2121 0.5261 -0.8235
vn 0.1439 0.8852 -0.4424
vn -0.0734 0.9959 -0.0522
vn 0.3200 0.9393 -0.1240
vn -0.4114 0.2964 -0.8619
vn -0.6826 0.1263 -0.7198
vn -0.6628 0.3356 -0.6694
vn -0.8283 -0.0098 -0.5602
vn -0.6179 -0.1279 -0.7758
vn -0.9255 -0.2433 -0.2903
vn -0.8164 -0.2315 -0.5290
vn -0.5165 -0.7983 -0.3096
vn -0.6011 -0.7956 -0.0754
vn -0.3444 0.0458 -0.9377
vn -0.1063 0.3038 -0.9468
vn 0.0850 0.4563 -0.8858
vn -0.8989 -0.3311 0.2872
vn -0.8835 -0.4272 0.1924
vn -0.9525 0.0039 -0.3046
vn -0.2174 0.9085 -0.3567
vn -0.3492 0.6838 -0.6406
vn -0.5216 0.7536 -0.4001
vn -0.6681 0.5711 -0.4770
vn -0.6909 0.7136 -0.1156
vn -0.4568 0.8853 -0.0868
vn -0.8439 0.4822 -0.2352
vn -0.8556 0.5168 0.0287
vn -0.3545 -0.1165 0.9278
vn -0.7015 0.0388 0.7116
vn -0.7670 -0.2370 0.5962
vn -0.1280 -0.6676 0.7335
vn -0.3796 -0.7849 0.4897
vn -0.8627 0.0404 0.5041
vn -0.9297 0.2736 0.2468
vn -0.9719 0.0768 0.2227
vn -0.8030 0.4954 0.3313
vn -0.9782 0.1959 -0.0693
vn -0.9513 -0.1221 0.2831
vn -0.4857 -0.8037 0.3436
vn 0.2488 0.1998 -0.9477
vn 0.3946 0.3376 -0.8546
vn 0.6192 0.2634 -0.7398
vn 0.4413 0.7757 -0.4511
vn 0.7031 0.6049 -0.3738
vn 0.6195 0.4846 -0.6175
vn 0.5200 0.8519 0.0623
vn 0.6612 0.7328 -0.1608
vn 0.6416 -0.0016 -0.7670
vn 0.8243 0.0934 -0.5583
vn 0.8517 0.3291 -0.4079
vn 0.5102 -0.0671 -0.8575
vn 0.4346 -0.2890 -0.8530
vn 0.1467 -0.7962 -0.5870
vn 0.0265 -0.2877 -0.9574
vn 0.2746 -0.0590 -0.9598
vn 0.8415 0.5216 -0.1407
vn 0.0023 0.0035 -1.0000
vn 0.2728 -0.1841 0.9443
vn 0.7490 -0.3509 0.5620
vn 0.4010 -0.1472 0.9042
vn 0.6630 -0.0884 0.7434
vn 0.3676 0.1771 0.9130
vn 0.8285 -0.3930 0.3990
vn 0.6019 -0.7963 -0.0603
vn 0.9435 -0.3110 0.1143
vn 0.8389 -0.1376 0.5267
vn 0.7756 0.1133 0.6209
vn 0.0157 0.8021 0.5970
vn -0.0478 0.3949 0.9175
vn 0.2535 0.6611 0.7062
vn -0.1351 0.9409 0.3105
vn -0.3433 0.7218 0.6010
vn 0.2882 0.3349 0.8971
vn -0.3772 0.8911 0.2522
vn -0.2557 0.3151 0.9140
vn -0.5981 0.4871 0.6365
vn -0.3687 0.1374 0.9193
vn -0.5967 0.7416 0.3065
vn -0.7879 0.2844 0.5462
vn 0.1803 0.9428 0.2802
vn 0.4333 0.7330 0.5244
vn 0.7641 0.6249 0.1602
vn 0.4591 0.8465 0.2694
vn 0.6964 0.5597 0.4491
vn 0.9576 0.0377 -0.2857
vn 0.9401 0.3351 -0.0621
vn 0.9992 -0.0116 0.0378
vn 0.7889 -0.1983 -0.5817
vn 0.9548 -0.2092 -0.2114
vn 0.4200 -0.7714 -0.4780
vn 0.5415 -0.7863 -0.2977
vn 0.9773 0.1534 0.1461
vn 0.8856 0.3929 0.2476
vn 0.8804 0.2163 0.4220
vn 0.7175 0.3777 0.5852
vn 0.5313 0.4787 0.6990
vn 0.9363 -0.1111 0.3332
vn 0.3627 0.5922 -0.7195
vn -0.5870 -0.3643 -0.7230
vn -0.9054 0.2236 -0.3609
vn -0.8304 0.3344 -0.4456
vn -0.9829 -0.1829 -0.0207
vn -0.4877 0.5091 -0.7092
vn -0.4728 -0.4669 -0.7473
vn -0.3875 -0.2777 -0.8790
vn -0.1921 -0.3880 -0.9014
vn -0.2460 -0.1644 -0.9552
vn -0.7331 -0.6623 -0.1546
vn -0.9532 -0.0171 -0.3019
vn -0.5782 -0.6503 -0.4928
vn -0.6246 0.0227 0.7806
vn -0.3019 -0.0161 0.9532
vn -0.7806 -0.0216 0.6246
vn -0.1971 -0.0407 0.9795
vn -0.3019 0.0161 -0.9532
vn 0.3019 -0.0176 -0.9532
vn 0.1971 -0.0423 -0.9795
vn -0.1971 0.0407 -0.9795
vn -0.0006 0.0015 1.0000
vn -0.0029 0.0114 0.9999
vn -0.0006 0.0012 1.0000
vn -0.0007 0.0011 1.0000
vn -0.0012 0.0009 1.0000
vn -0.0015 0.0009 1.0000
vn -0.0012 0.0006 1.0000
vn -0.0011 0.0002 1.0000
vn -0.0027 -0.0031 1.0000
vn -0.0047 -0.0042 1.0000
vn -0.0030 -0.0047 1.0000
vn -0.0017 -0.0056 1.0000
vn 0.0067 -0.0213 0.9997
vn 0.0051 -0.0354 0.9994
vn 0.0070 -0.0253 0.9997
vn 0.0030 -0.0030 1.0000
vn 0.0034 -0.0018 1.0000
vn 0.0047 -0.0006 1.0000
vn 0.0087 0.0008 1.0000
vn 0.0103 0.0008 0.9999
vn 0.0075 0.0034 1.0000
vn 0.0043 0.0002 1.0000
vn -0.0011 -0.0004 1.0000
vn -0.0008 -0.0008 1.0000
vn -0.0014 0.0053 1.0000
vn 0.0007 0.0086 1.0000
vn -0.0038 0.0099 0.9999
vn 0.3019 0.0176 0.9532
vn 0.6246 -0.0214 0.7807
vn 0.1971 0.0423 0.9795
vn 0.5741 -0.6479 0.5006
vn 0.9532 -0.0166 0.3019
vn 0.7244 -0.6728 0.1502
vn 0.9532 0.0166 -0.3019
vn 0.9795 0.0413 -0.1971
vn 0.7806 -0.0226 -0.6246
vn 0.6246 0.0214 -0.7807
vn -0.6246 -0.0227 -0.7806
vn -0.9532 0.0171 0.3019
vn -0.9795 0.0416 0.1970
vn -0.0000 -1.0000 0.0008
vn 0.0004 -1.0000 0.0020
vn -0.0010 -1.0000 0.0023
vn -0.0062 -1.0000 0.0077
vn -0.0031 -0.9998 0.0172
vn 0.0041 -0.9999 0.0099
vn 0.0010 -0.9999 0.0113
vn 0.0109 -0.9999 0.0100
vn 0.0127 -0.9999 0.0086
vn 0.0123 -0.9999 0.0067
vn 0.0055 -1.0000 -0.0016
vn 0.0104 -0.9998 -0.0171
vn 0.0084 -0.9999 -0.0116
vn 0.0005 -1.0000 -0.0084
vn 0.0004 -1.0000 -0.0066
vn -0.0009 -1.0000 -0.0006
vn -0.0032 -1.0000 0.0003
vn -0.0044 -1.0000 -0.0022
usemtl Material__1.007
s 1
f 2//1 1//2 17//3
f 2//1 3//4 1//2
f 3//4 4//5 5//6
f 6//7 7//8 8//9
f 10//10 7//8 9//11
f 11//12 12//13 13//14
f 13//14 14//15 11//12
f 9//11 12//13 10//10
f 7//8 6//7 15//16
f 6//7 17//3 16//17
f 1//2 18//18 17//3
f 18//18 16//17 17//3
f 16//17 15//16 6//7
f 99//19 14//15 19//20
f 10//10 12//13 103//21
f 3//4 2//1 21//22
f 20//23 21//22 2//1
f 21//22 4//5 3//4
f 23//24 21//22 20//23
f 106//25 24//26 23//24
f 21//22 23//24 25//27
f 24//26 25//27 23//24
f 24//26 26//28 27//29
f 30//30 77//31 31//32
f 34//33 30//30 32//34
f 31//32 32//34 30//30
f 77//31 29//35 31//32
f 29//35 28//36 33//37
f 27//29 28//36 76//38
f 26//28 24//26 106//25
f 26//28 104//39 27//29
f 104//39 33//37 28//36
f 29//35 33//37 100//40
f 100//40 31//32 29//35
f 32//34 31//32 35//41
f 108//42 40//43 41//44
f 96//45 43//46 42//47
f 44//48 45//49 5//6
f 49//50 41//44 48//51
f 47//52 41//44 42//47
f 42//47 43//46 47//52
f 50//53 41//44 49//50
f 53//54 51//55 52//56
f 52//56 38//57 53//54
f 50//53 53//54 38//57
f 45//49 46//58 43//46
f 38//57 52//56 39//59
f 38//57 108//42 50//53
f 108//42 41//44 50//53
f 55//60 56//61 54//62
f 56//61 57//63 54//62
f 57//63 59//64 54//62
f 58//65 92//66 60//67
f 61//68 62//69 57//63
f 66//70 67//71 65//72
f 66//70 68//73 69//74
f 65//72 67//71 64//75
f 67//71 66//70 69//74
f 68//73 4//5 71//76
f 67//71 69//74 70//77
f 73//78 72//79 70//77
f 70//77 69//74 73//78
f 71//76 4//5 25//27
f 74//80 73//78 69//74
f 76//38 75//81 73//78
f 72//79 77//31 30//30
f 72//79 73//78 75//81
f 72//79 75//81 77//31
f 74//80 27//29 76//38
f 24//26 27//29 74//80
f 25//27 4//5 21//22
f 74//80 25//27 24//26
f 73//78 74//80 76//38
f 28//36 29//35 75//81
f 75//81 76//38 28//36
f 77//31 75//81 29//35
f 69//74 71//76 74//80
f 71//76 69//74 68//73
f 66//70 65//72 79//82
f 79//82 68//73 66//70
f 78//83 79//82 65//72
f 95//84 81//85 80//86
f 78//83 80//86 81//85
f 79//82 4//5 68//73
f 79//82 78//83 81//85
f 84//87 83//88 85//89
f 87//90 84//87 86//91
f 89//92 87//90 88//93
f 86//91 88//93 87//90
f 85//89 86//91 84//87
f 90//94 82//95 91//96
f 88//93 86//91 92//66
f 91//96 80//86 93//97
f 80//86 78//83 63//98
f 63//98 93//97 80//86
f 90//94 91//96 94//99
f 85//89 90//94 94//99
f 62//69 94//99 91//96
f 91//96 93//97 62//69
f 59//64 62//69 93//97
f 63//98 59//64 93//97
f 94//99 62//69 61//68
f 64//75 59//64 63//98
f 63//98 65//72 64//75
f 60//67 94//99 58//65
f 58//65 56//61 55//60
f 94//99 61//68 58//65
f 94//99 60//67 85//89
f 60//67 92//66 86//91
f 65//72 63//98 78//83
f 82//95 80//86 91//96
f 48//51 84//87 87//90
f 80//86 82//95 95//84
f 81//85 95//84 44//48
f 44//48 79//82 81//85
f 79//82 44//48 5//6
f 46//58 47//52 43//46
f 45//49 95//84 46//58
f 83//88 47//52 46//58
f 50//53 49//50 87//90
f 49//50 48//51 87//90
f 87//90 89//92 50//53
f 53//54 50//53 89//92
f 89//92 51//55 53//54
f 83//88 95//84 82//95
f 48//51 47//52 84//87
f 83//88 84//87 47//52
f 83//88 82//95 90//94
f 62//69 59//64 57//63
f 57//63 56//61 61//68
f 58//65 61//68 56//61
f 45//49 43//46 96//45
f 5//6 45//49 96//45
f 5//6 96//45 3//4
f 96//45 97//100 3//4
f 1//2 3//4 97//100
f 15//16 9//11 7//8
f 13//14 12//13 98//101
f 102//102 103//21 104//39
f 105//103 106//25 8//9
f 23//24 20//23 106//25
f 100//40 33//37 101//104
f 104//39 101//104 33//37
f 104//39 26//28 102//102
f 105//103 102//102 26//28
f 106//25 105//103 26//28
f 99//19 35//41 31//32
f 100//40 99//19 31//32
f 106//25 20//23 22//105
f 103//21 101//104 104//39
f 101//104 99//19 100//40
f 19//20 35//41 99//19
f 22//105 8//9 106//25
f 8//9 7//8 105//103
f 102//102 105//103 10//10
f 7//8 10//10 105//103
f 10//10 103//21 102//102
f 101//104 103//21 11//12
f 99//19 101//104 14//15
f 11//12 14//15 101//104
f 11//12 103//21 12//13
f 17//3 6//7 22//105
f 20//23 2//1 17//3
f 22//105 20//23 17//3
f 6//7 8//9 22//105
f 98//101 107//106 13//14
f 108//42 39//59 16//17
f 40//43 108//42 18//18
f 18//18 97//100 40//43
f 107//106 37//107 36//108
f 52//56 36//108 109//109
f 39//59 108//42 38//57
f 40//43 42//47 41//44
f 39//59 52//56 109//109
f 37//107 109//109 36//108
f 37//107 107//106 98//101
f 42//47 40//43 97//100
f 97//100 96//45 42//47
f 39//59 109//109 15//16
f 109//109 37//107 15//16
f 37//107 98//101 9//11
f 9//11 15//16 37//107
f 39//59 15//16 16//17
f 18//18 108//42 16//17
f 97//100 18//18 1//2
f 12//13 9//11 98//101
f 112//110 111//111 110//112
f 104//39 28//36 27//29
f 113//113 115//114 114//115
f 116//116 115//114 113//113
f 119//117 118//118 117//119
f 119//117 120//120 118//118
f 36//108 52//56 51//55
f 121//121 122//122 72//79
f 72//79 123//123 121//121
f 124//124 123//123 72//79
f 72//79 125//125 124//124
f 30//30 125//125 72//79
f 30//30 126//126 125//125
f 30//30 127//127 126//126
f 128//128 127//127 30//30
f 30//30 129//129 128//128
f 34//33 129//129 30//30
f 34//33 130//130 129//129
f 131//131 130//130 34//33
f 132//132 131//131 34//33
f 133//133 132//132 34//33
f 55//60 133//133 34//33
f 134//134 133//133 55//60
f 55//60 135//135 134//134
f 54//62 135//135 55//60
f 136//136 135//135 54//62
f 54//62 137//137 136//136
f 54//62 138//138 137//137
f 139//139 138//138 54//62
f 59//64 139//139 54//62
f 140//140 139//139 59//64
f 59//64 141//141 140//140
f 142//142 141//141 59//64
f 64//75 142//142 59//64
f 143//143 142//142 64//75
f 64//75 144//144 143//143
f 145//145 144//144 64//75
f 67//71 145//145 64//75
f 146//146 145//145 67//71
f 67//71 147//147 146//146
f 70//77 147//147 67//71
f 122//122 147//147 70//77
f 72//79 122//122 70//77
f 150//148 152//149 151//150
f 153//151 152//149 150//148
f 153//151 154//152 152//149
f 155//153 154//152 153//151
f 149//154 154//152 155//153
f 154//152 149//154 148//155
f 149//154 156//156 148//155
f 157//157 156//156 149//154
f 45//49 44//48 95//84
f 118//118 157//157 117//119
f 156//156 157//157 118//118
f 115//114 150//148 151//150
f 150//148 115//114 116//116
f 158//158 110//112 111//111
f 159//159 114//115 160//160
f 114//115 159//159 113//113
f 150//161 155//153 153//151
f 150//161 149//161 155//153
f 150//161 157//161 149//161
f 117//161 157//161 150//161
f 116//161 117//161 150//161
f 119//161 117//161 116//161
f 110//112 119//161 116//161
f 113//161 110//112 116//161
f 159//161 110//112 113//161
f 112//110 110//112 159//161
f 111//111 112//110 159//159
f 110//112 158//158 119//117
f 120//120 119//117 158//158
f 159//159 160//160 111//111
f 47//52 48//51 41//44
f 25//27 74//80 71//76
f 83//88 90//94 85//89
f 85//89 60//67 86//91
f 95//84 83//88 46//58
f 5//6 4//5 79//82
f 35//41 19//162 160//163
f 114//164 35//41 160//163
f 32//34 35//41 114//164
f 115//165 32//34 114//164
f 34//33 32//34 115//165
f 55//166 34//33 115//165
f 151//167 55//166 115//165
f 152//168 55//166 151//167
f 58//169 55//166 152//168
f 154//170 58//169 152//168
f 92//66 58//169 154//170
f 148//171 92//66 154//170
f 88//93 92//66 148//171
f 156//172 88//93 148//171
f 156//172 89//92 88//93
f 118//173 89//92 156//172
f 118//173 51//55 89//92
f 36//174 51//55 118//173
f 120//175 36//174 118//173
f 107//176 36//174 120//175
f 158//177 107//176 120//175
f 158//177 13//14 107//176
f 111//178 13//14 158//177
f 14//15 13//14 111//178
f 160//163 14//15 111//178
f 19//162 14//15 160//163
